<svg width="7296" height="12335" viewBox="0 0 7296 12335" fill="none" xmlns="http://www.w3.org/2000/svg">
<g clip-path="url(#clip0_3291_180)">
<path d="M552.312 2217.69C552.312 2215.6 552.312 2211.44 552.312 2205.19C552.312 2197.9 551.792 2190.6 550.75 2183.31C550.75 2176.02 550.75 2169.25 550.75 2163C550.75 2155.71 550.75 2150.5 550.75 2147.38C550.75 2100.5 553.875 2054.67 560.125 2009.88C567.417 1964.04 574.708 1918.73 582 1873.94C590.333 1828.1 597.625 1782.79 603.875 1738C611.167 1692.17 614.812 1645.81 614.812 1598.94C614.812 1594.77 614.812 1586.44 614.812 1573.94C614.812 1561.44 614.812 1548.42 614.812 1534.88C614.812 1520.29 614.292 1506.75 613.25 1494.25C613.25 1481.75 613.25 1472.9 613.25 1467.69C607 1457.27 597.625 1449.98 585.125 1445.81C573.667 1441.65 562.208 1437.48 550.75 1433.31C539.292 1429.15 528.875 1423.94 519.5 1417.69C511.167 1411.44 507 1401.54 507 1388C507 1378.62 509.604 1371.33 514.812 1366.12C520.021 1359.88 526.271 1355.19 533.562 1352.06C541.896 1348.94 550.229 1347.38 558.562 1347.38C567.938 1346.33 576.792 1345.81 585.125 1345.81C635.125 1345.81 672.625 1361.96 697.625 1394.25C722.625 1426.54 735.125 1467.69 735.125 1517.69C735.125 1564.56 730.958 1610.92 722.625 1656.75C714.292 1701.54 704.917 1746.33 694.5 1791.12C684.083 1835.92 674.708 1881.23 666.375 1927.06C658.042 1971.85 653.875 2017.69 653.875 2064.56V2077.06C658.042 2072.9 664.812 2066.12 674.188 2056.75C684.604 2047.38 695.021 2037.48 705.438 2027.06C716.896 2015.6 727.312 2005.19 736.688 1995.81C746.062 1985.4 752.312 1978.1 755.438 1973.94C812.729 1905.19 864.292 1833.31 910.125 1758.31C955.958 1682.27 998.146 1609.35 1036.69 1539.56C1075.23 1469.77 1111.17 1405.19 1144.5 1345.81C1177.83 1285.4 1211.17 1235.4 1244.5 1195.81C1277.83 1156.23 1312.21 1130.19 1347.62 1117.69C1383.04 1104.15 1422.1 1109.35 1464.81 1133.31C1464.81 1145.81 1460.12 1155.19 1450.75 1161.44C1442.42 1166.65 1432.52 1170.81 1421.06 1173.94C1409.6 1177.06 1398.15 1180.71 1386.69 1184.88C1375.23 1188 1366.9 1194.25 1361.69 1203.62C1262.73 1380.71 1155.96 1555.71 1041.38 1728.62C927.833 1900.5 805.438 2063.52 674.188 2217.69C662.729 2227.06 652.833 2233.31 644.5 2236.44C636.167 2238.52 625.75 2239.56 613.25 2239.56C600.75 2239.56 590.333 2238.52 582 2236.44C573.667 2233.31 563.771 2227.06 552.312 2217.69ZM1092.94 2136.44C1102.31 2077.06 1120.02 2022.38 1146.06 1972.38C1172.1 1922.38 1201.79 1879.15 1235.12 1842.69C1269.5 1805.19 1306.48 1774.46 1346.06 1750.5C1385.65 1726.54 1424.19 1711.44 1461.69 1705.19C1499.19 1697.9 1533.56 1699.46 1564.81 1709.88C1597.1 1720.29 1623.15 1741.12 1642.94 1772.38C1642.94 1796.33 1637.21 1819.25 1625.75 1841.12C1615.33 1863 1603.35 1884.88 1589.81 1906.75C1577.31 1928.62 1565.33 1951.02 1553.88 1973.94C1543.46 1996.85 1538.25 2021.33 1538.25 2047.38C1538.25 2074.46 1543.98 2096.33 1555.44 2113C1567.94 2128.62 1589.29 2136.44 1619.5 2136.44C1644.5 2136.44 1668.46 2132.79 1691.38 2125.5C1715.33 2118.21 1739.29 2114.56 1763.25 2114.56C1767.42 2114.56 1774.19 2115.08 1783.56 2116.12C1793.98 2116.12 1800.75 2116.12 1803.88 2116.12C1791.38 2133.83 1775.23 2148.94 1755.44 2161.44C1735.65 2173.94 1714.81 2184.88 1692.94 2194.25C1671.06 2202.58 1648.15 2208.83 1624.19 2213C1601.27 2217.17 1579.92 2219.25 1560.12 2219.25C1541.38 2219.25 1524.71 2215.08 1510.12 2206.75C1495.54 2198.42 1483.04 2187.48 1472.62 2173.94C1462.21 2160.4 1453.88 2145.29 1447.62 2128.62C1442.42 2110.92 1439.81 2093.73 1439.81 2077.06C1424.19 2094.77 1407 2113.52 1388.25 2133.31C1370.54 2152.06 1351.27 2169.25 1330.44 2184.88C1310.65 2200.5 1288.77 2213.52 1264.81 2223.94C1241.9 2234.35 1217.94 2239.56 1192.94 2239.56C1165.85 2239.56 1142.42 2229.67 1122.62 2209.88C1102.83 2189.04 1092.94 2164.56 1092.94 2136.44ZM1196.06 2088C1196.06 2096.33 1196.06 2105.71 1196.06 2116.12C1197.1 2126.54 1203.88 2133.31 1216.38 2136.44C1242.42 2130.19 1272.1 2116.65 1305.44 2095.81C1338.77 2073.94 1370.02 2048.94 1399.19 2020.81C1428.35 1991.65 1452.83 1960.92 1472.62 1928.62C1492.42 1895.29 1502.31 1863.52 1502.31 1833.31C1502.31 1831.23 1501.79 1828.1 1500.75 1823.94C1500.75 1818.73 1500.75 1815.08 1500.75 1813C1465.33 1813 1429.4 1820.29 1392.94 1834.88C1356.48 1849.46 1323.67 1869.77 1294.5 1895.81C1265.33 1920.81 1241.38 1949.98 1222.62 1983.31C1204.92 2016.65 1196.06 2051.54 1196.06 2088ZM1328.88 1577.06C1300.75 1577.06 1282.52 1572.38 1274.19 1563C1266.9 1552.58 1265.85 1541.12 1271.06 1528.62C1277.31 1516.12 1287.21 1503.62 1300.75 1491.12C1315.33 1478.62 1329.92 1469.77 1344.5 1464.56C1359.08 1458.31 1372.1 1457.79 1383.56 1463C1395.02 1467.17 1400.75 1480.19 1400.75 1502.06C1400.75 1524.98 1393.98 1543.21 1380.44 1556.75C1367.94 1570.29 1350.75 1577.06 1328.88 1577.06ZM1596.06 1566.12C1567.94 1566.12 1549.71 1561.44 1541.38 1552.06C1534.08 1541.65 1533.04 1530.19 1538.25 1517.69C1544.5 1505.19 1554.4 1492.69 1567.94 1480.19C1582.52 1467.69 1597.1 1458.83 1611.69 1453.62C1626.27 1447.38 1639.29 1446.85 1650.75 1452.06C1662.21 1456.23 1667.94 1469.25 1667.94 1491.12C1667.94 1514.04 1661.17 1532.27 1647.62 1545.81C1635.12 1559.35 1617.94 1566.12 1596.06 1566.12ZM1749.19 2095.81C1749.19 2088.52 1749.71 2077.58 1750.75 2063C1752.83 2047.38 1754.92 2032.27 1757 2017.69C1759.08 2003.1 1761.17 1990.08 1763.25 1978.62C1765.33 1966.12 1767.42 1958.31 1769.5 1955.19L2053.88 1386.44C2058.04 1378.1 2065.85 1366.65 2077.31 1352.06C2089.81 1336.44 2102.83 1320.81 2116.38 1305.19C2130.96 1288.52 2145.02 1273.42 2158.56 1259.88C2173.15 1245.29 2185.12 1233.83 2194.5 1225.5C2201.79 1227.58 2207 1231.23 2210.12 1236.44C2213.25 1241.65 2215.33 1247.9 2216.38 1255.19C2217.42 1261.44 2217.42 1267.69 2216.38 1273.94C2216.38 1280.19 2216.38 1285.4 2216.38 1289.56C2216.38 1294.77 2216.38 1302.06 2216.38 1311.44C2216.38 1320.81 2215.85 1325.5 2214.81 1325.5C2204.4 1353.62 2188.25 1386.96 2166.38 1425.5C2144.5 1464.04 2120.02 1505.19 2092.94 1548.94C2065.85 1592.69 2037.73 1638.52 2008.56 1686.44C1980.44 1733.31 1954.4 1780.19 1930.44 1827.06C1907.52 1872.9 1888.25 1917.17 1872.62 1959.88C1858.04 2002.58 1850.75 2041.65 1850.75 2077.06C1850.75 2095.81 1855.96 2110.92 1866.38 2122.38C1877.83 2132.79 1889.81 2142.17 1902.31 2150.5C1914.81 2158.83 1926.27 2167.17 1936.69 2175.5C1948.15 2183.83 1953.88 2195.29 1953.88 2209.88C1953.88 2219.25 1949.71 2226.54 1941.38 2231.75C1933.04 2235.92 1923.15 2238 1911.69 2238C1867.94 2238 1829.92 2226.02 1797.62 2202.06C1765.33 2177.06 1749.19 2141.65 1749.19 2095.81ZM2372.62 2016.12C2360.12 2032.79 2349.71 2051.54 2341.38 2072.38C2333.04 2093.21 2323.67 2113 2313.25 2131.75C2302.83 2150.5 2290.33 2166.12 2275.75 2178.62C2261.17 2191.12 2241.9 2197.38 2217.94 2197.38C2198.15 2197.38 2184.6 2194.25 2177.31 2188C2170.02 2180.71 2166.38 2166.65 2166.38 2145.81C2166.38 2120.81 2173.15 2093.21 2186.69 2063C2201.27 2032.79 2218.46 2003.62 2238.25 1975.5C2258.04 1946.33 2278.35 1919.25 2299.19 1894.25C2320.02 1869.25 2337.21 1848.94 2350.75 1833.31L2639.81 1208.31C2647.1 1190.6 2660.12 1173.94 2678.88 1158.31C2698.67 1142.69 2718.98 1134.88 2739.81 1134.88V1186.44L2574.19 1569.25V1606.75C2591.9 1606.75 2608.56 1604.15 2624.19 1598.94C2639.81 1592.69 2655.44 1585.92 2671.06 1578.62C2686.69 1571.33 2702.83 1565.08 2719.5 1559.88C2737.21 1553.62 2756.48 1550.5 2777.31 1550.5C2796.06 1563 2805.96 1578.62 2807 1597.38C2808.04 1615.08 2803.35 1634.88 2792.94 1656.75C2782.52 1677.58 2767.94 1698.94 2749.19 1720.81C2731.48 1742.69 2712.73 1764.04 2692.94 1784.88C2673.15 1804.67 2653.88 1822.38 2635.12 1838C2617.42 1853.62 2603.88 1865.6 2594.5 1873.94C2578.88 1886.44 2564.29 1895.29 2550.75 1900.5C2538.25 1904.67 2527.31 1908.83 2517.94 1913C2508.56 1917.17 2501.27 1923.42 2496.06 1931.75C2491.9 1940.08 2489.81 1954.15 2489.81 1973.94C2489.81 2003.1 2497.62 2027.06 2513.25 2045.81C2528.88 2063.52 2549.19 2077.58 2574.19 2088C2600.23 2098.42 2628.88 2105.71 2660.12 2109.88C2692.42 2113 2724.71 2114.56 2757 2114.56C2789.29 2114.56 2820.02 2113.52 2849.19 2111.44C2878.35 2108.31 2903.35 2105.19 2924.19 2102.06L2942.94 2120.81C2931.48 2136.44 2913.77 2151.54 2889.81 2166.12C2866.9 2179.67 2841.38 2192.17 2813.25 2203.62C2786.17 2214.04 2759.08 2222.9 2732 2230.19C2704.92 2236.44 2682.52 2239.56 2664.81 2239.56C2631.48 2239.56 2599.19 2234.35 2567.94 2223.94C2536.69 2212.48 2508.04 2196.85 2482 2177.06C2455.96 2157.27 2433.04 2133.83 2413.25 2106.75C2394.5 2078.62 2380.96 2048.42 2372.62 2016.12ZM2680.44 1664.56C2671.06 1664.56 2657 1668.21 2638.25 1675.5C2619.5 1682.79 2600.75 1692.17 2582 1703.62C2563.25 1715.08 2547.1 1727.58 2533.56 1741.12C2520.02 1754.67 2513.25 1768.21 2513.25 1781.75V1792.69C2520.54 1789.56 2533.04 1784.35 2550.75 1777.06C2569.5 1769.77 2588.25 1760.92 2607 1750.5C2626.79 1739.04 2643.98 1726.02 2658.56 1711.44C2673.15 1696.85 2680.44 1681.23 2680.44 1664.56ZM2914.81 2106.75C2914.81 2102.58 2914.81 2094.25 2914.81 2081.75C2915.85 2068.21 2916.38 2059.35 2916.38 2055.19C2949.71 1979.15 2992.42 1908.83 3044.5 1844.25C3096.58 1779.67 3155.44 1722.38 3221.06 1672.38C3223.15 1672.38 3226.27 1671.85 3230.44 1670.81C3235.65 1668.73 3239.29 1667.69 3241.38 1667.69C3269.5 1667.69 3292.42 1673.94 3310.12 1686.44C3328.88 1697.9 3343.46 1713.52 3353.88 1733.31C3365.33 1752.06 3373.15 1773.42 3377.31 1797.38C3381.48 1820.29 3383.56 1842.69 3383.56 1864.56C3383.56 1905.19 3374.19 1947.9 3355.44 1992.69C3336.69 2036.44 3311.17 2077.06 3278.88 2114.56C3247.62 2151.02 3211.69 2181.23 3171.06 2205.19C3130.44 2228.1 3088.25 2239.56 3044.5 2239.56C3000.75 2239.56 2967.94 2228.1 2946.06 2205.19C2925.23 2181.23 2914.81 2148.42 2914.81 2106.75ZM3036.69 2088C3036.69 2099.46 3041.38 2107.27 3050.75 2111.44C3060.12 2115.6 3069.5 2117.69 3078.88 2117.69C3104.92 2117.69 3129.92 2110.92 3153.88 2097.38C3178.88 2082.79 3200.75 2065.08 3219.5 2044.25C3239.29 2022.38 3254.92 1998.42 3266.38 1972.38C3277.83 1946.33 3283.56 1921.33 3283.56 1897.38C3283.56 1885.92 3282.52 1873.42 3280.44 1859.88C3279.4 1845.29 3276.27 1832.79 3271.06 1822.38C3265.85 1810.92 3257.52 1802.06 3246.06 1795.81C3235.65 1789.56 3220.54 1788.52 3200.75 1792.69C3186.17 1795.81 3169.5 1809.35 3150.75 1833.31C3132 1857.27 3113.77 1885.4 3096.06 1917.69C3079.4 1948.94 3065.33 1980.71 3053.88 2013C3042.42 2044.25 3036.69 2069.25 3036.69 2088ZM4192.94 2239.56C4173.15 2239.56 4154.92 2235.92 4138.25 2228.62C4122.62 2221.33 4109.6 2210.92 4099.19 2197.38C4088.77 2183.83 4081.48 2168.73 4077.31 2152.06C4073.15 2134.35 4073.67 2115.6 4078.88 2095.81C4078.88 2062.48 4084.6 2031.75 4096.06 2003.62C4108.56 1974.46 4122.1 1946.85 4136.69 1920.81C4152.31 1893.73 4165.85 1867.17 4177.31 1841.12C4189.81 1814.04 4196.06 1785.4 4196.06 1755.19C4173.15 1755.19 4148.67 1762.48 4122.62 1777.06C4096.58 1791.65 4070.02 1810.92 4042.94 1834.88C4016.9 1858.83 3990.85 1885.92 3964.81 1916.12C3939.81 1945.29 3915.85 1974.98 3892.94 2005.19C3871.06 2034.35 3851.79 2062.48 3835.12 2089.56C3819.5 2116.65 3807.52 2139.04 3799.19 2156.75C3797.1 2157.79 3791.9 2158.83 3783.56 2159.88C3775.23 2159.88 3770.02 2159.88 3767.94 2159.88C3751.27 2168.21 3740.85 2168.21 3736.69 2159.88C3733.56 2150.5 3733.56 2136.44 3736.69 2117.69C3740.85 2098.94 3747.1 2078.1 3755.44 2055.19C3763.77 2031.23 3771.58 2008.83 3778.88 1988C3787.21 1966.12 3793.46 1948.42 3797.62 1934.88C3801.79 1920.29 3802.31 1913 3799.19 1913C3802.31 1908.83 3805.96 1902.06 3810.12 1892.69C3814.29 1883.31 3818.46 1873.42 3822.62 1863C3826.79 1852.58 3830.44 1843.21 3833.56 1834.88C3836.69 1825.5 3838.25 1818.21 3838.25 1813C3838.25 1803.62 3834.6 1797.9 3827.31 1795.81C3821.06 1792.69 3814.81 1791.12 3808.56 1791.12C3789.81 1780.71 3769.5 1786.96 3747.62 1809.88C3726.79 1831.75 3703.88 1863.52 3678.88 1905.19C3654.92 1945.81 3628.35 1992.69 3599.19 2045.81C3571.06 2097.9 3539.81 2148.42 3505.44 2197.38C3481.48 2197.38 3463.25 2194.25 3450.75 2188C3438.25 2181.75 3432 2166.12 3432 2141.12C3440.33 2129.67 3452.83 2108.31 3469.5 2077.06C3486.17 2044.77 3504.92 2009.35 3525.75 1970.81C3546.58 1932.27 3568.46 1893.21 3591.38 1853.62C3615.33 1814.04 3637.73 1780.71 3658.56 1753.62C3680.44 1725.5 3699.71 1706.75 3716.38 1697.38C3734.08 1686.96 3748.15 1691.65 3758.56 1711.44C3776.27 1699.98 3795.54 1690.08 3816.38 1681.75C3838.25 1673.42 3860.12 1669.25 3882 1669.25C3896.58 1669.25 3908.56 1673.94 3917.94 1683.31C3928.35 1691.65 3936.17 1702.58 3941.38 1716.12C3947.62 1728.62 3952.31 1742.17 3955.44 1756.75C3958.56 1770.29 3960.12 1782.27 3960.12 1792.69C3971.58 1785.4 3990.33 1772.9 4016.38 1755.19C4043.46 1736.44 4072.1 1717.69 4102.31 1698.94C4133.56 1680.19 4163.77 1664.04 4192.94 1650.5C4223.15 1635.92 4247.62 1628.62 4266.38 1628.62C4283.04 1628.62 4297.1 1634.88 4308.56 1647.38C4321.06 1658.83 4327.31 1673.42 4327.31 1691.12C4289.81 1782.79 4260.12 1856.23 4238.25 1911.44C4217.42 1966.65 4203.35 2009.88 4196.06 2041.12C4189.81 2071.33 4189.81 2093.21 4196.06 2106.75C4203.35 2119.25 4215.85 2129.15 4233.56 2136.44C4261.69 2136.44 4288.77 2131.75 4314.81 2122.38C4340.85 2113 4366.38 2102.58 4391.38 2091.12C4417.42 2079.67 4443.46 2069.25 4469.5 2059.88C4495.54 2050.5 4523.15 2045.81 4552.31 2045.81C4552.31 2057.27 4549.19 2068.21 4542.94 2078.62C4537.73 2088 4529.4 2095.29 4517.94 2100.5C4509.6 2105.71 4494.5 2114.04 4472.62 2125.5C4451.79 2135.92 4428.88 2147.38 4403.88 2159.88C4378.88 2171.33 4354.92 2182.79 4332 2194.25C4310.12 2205.71 4294.5 2213.52 4285.12 2217.69C4264.29 2227.06 4248.15 2233.31 4236.69 2236.44C4226.27 2238.52 4211.69 2239.56 4192.94 2239.56ZM5260.12 2239.56C5240.33 2239.56 5222.1 2235.92 5205.44 2228.62C5189.81 2221.33 5176.79 2210.92 5166.38 2197.38C5155.96 2183.83 5148.67 2168.73 5144.5 2152.06C5140.33 2134.35 5140.85 2115.6 5146.06 2095.81C5146.06 2062.48 5151.79 2031.75 5163.25 2003.62C5175.75 1974.46 5189.29 1946.85 5203.88 1920.81C5219.5 1893.73 5233.04 1867.17 5244.5 1841.12C5257 1814.04 5263.25 1785.4 5263.25 1755.19C5240.33 1755.19 5215.85 1762.48 5189.81 1777.06C5163.77 1791.65 5137.21 1810.92 5110.12 1834.88C5084.08 1858.83 5058.04 1885.92 5032 1916.12C5007 1945.29 4983.04 1974.98 4960.12 2005.19C4938.25 2034.35 4918.98 2062.48 4902.31 2089.56C4886.69 2116.65 4874.71 2139.04 4866.38 2156.75C4864.29 2157.79 4859.08 2158.83 4850.75 2159.88C4842.42 2159.88 4837.21 2159.88 4835.12 2159.88C4818.46 2168.21 4808.04 2168.21 4803.88 2159.88C4800.75 2150.5 4800.75 2136.44 4803.88 2117.69C4808.04 2098.94 4814.29 2078.1 4822.62 2055.19C4830.96 2031.23 4838.77 2008.83 4846.06 1988C4854.4 1966.12 4860.65 1948.42 4864.81 1934.88C4868.98 1920.29 4869.5 1913 4866.38 1913C4869.5 1908.83 4873.15 1902.06 4877.31 1892.69C4881.48 1883.31 4885.65 1873.42 4889.81 1863C4893.98 1852.58 4897.62 1843.21 4900.75 1834.88C4903.88 1825.5 4905.44 1818.21 4905.44 1813C4905.44 1803.62 4901.79 1797.9 4894.5 1795.81C4888.25 1792.69 4882 1791.12 4875.75 1791.12C4857 1780.71 4836.69 1786.96 4814.81 1809.88C4793.98 1831.75 4771.06 1863.52 4746.06 1905.19C4722.1 1945.81 4695.54 1992.69 4666.38 2045.81C4638.25 2097.9 4607 2148.42 4572.62 2197.38C4548.67 2197.38 4530.44 2194.25 4517.94 2188C4505.44 2181.75 4499.19 2166.12 4499.19 2141.12C4507.52 2129.67 4520.02 2108.31 4536.69 2077.06C4553.35 2044.77 4572.1 2009.35 4592.94 1970.81C4613.77 1932.27 4635.65 1893.21 4658.56 1853.62C4682.52 1814.04 4704.92 1780.71 4725.75 1753.62C4747.62 1725.5 4766.9 1706.75 4783.56 1697.38C4801.27 1686.96 4815.33 1691.65 4825.75 1711.44C4843.46 1699.98 4862.73 1690.08 4883.56 1681.75C4905.44 1673.42 4927.31 1669.25 4949.19 1669.25C4963.77 1669.25 4975.75 1673.94 4985.12 1683.31C4995.54 1691.65 5003.35 1702.58 5008.56 1716.12C5014.81 1728.62 5019.5 1742.17 5022.62 1756.75C5025.75 1770.29 5027.31 1782.27 5027.31 1792.69C5038.77 1785.4 5057.52 1772.9 5083.56 1755.19C5110.65 1736.44 5139.29 1717.69 5169.5 1698.94C5200.75 1680.19 5230.96 1664.04 5260.12 1650.5C5290.33 1635.92 5314.81 1628.62 5333.56 1628.62C5350.23 1628.62 5364.29 1634.88 5375.75 1647.38C5388.25 1658.83 5394.5 1673.42 5394.5 1691.12C5357 1782.79 5327.31 1856.23 5305.44 1911.44C5284.6 1966.65 5270.54 2009.88 5263.25 2041.12C5257 2071.33 5257 2093.21 5263.25 2106.75C5270.54 2119.25 5283.04 2129.15 5300.75 2136.44C5328.88 2136.44 5355.96 2131.75 5382 2122.38C5408.04 2113 5433.56 2102.58 5458.56 2091.12C5484.6 2079.67 5510.65 2069.25 5536.69 2059.88C5562.73 2050.5 5590.33 2045.81 5619.5 2045.81C5619.5 2057.27 5616.38 2068.21 5610.12 2078.62C5604.92 2088 5596.58 2095.29 5585.12 2100.5C5576.79 2105.71 5561.69 2114.04 5539.81 2125.5C5518.98 2135.92 5496.06 2147.38 5471.06 2159.88C5446.06 2171.33 5422.1 2182.79 5399.19 2194.25C5377.31 2205.71 5361.69 2213.52 5352.31 2217.69C5331.48 2227.06 5315.33 2233.31 5303.88 2236.44C5293.46 2238.52 5278.88 2239.56 5260.12 2239.56ZM5582 2156.75C5564.29 2117.17 5556.48 2078.62 5558.56 2041.12C5560.65 2002.58 5568.98 1966.65 5583.56 1933.31C5599.19 1898.94 5618.98 1868.21 5642.94 1841.12C5667.94 1813 5694.5 1789.04 5722.62 1769.25C5750.75 1748.42 5778.88 1732.79 5807 1722.38C5836.17 1711.96 5861.69 1707.79 5883.56 1709.88C5905.44 1710.92 5922.62 1718.73 5935.12 1733.31C5947.62 1747.9 5951.79 1770.29 5947.62 1800.5C5947.62 1841.12 5934.6 1876.54 5908.56 1906.75C5883.56 1936.96 5855.44 1964.04 5824.19 1988C5793.98 2011.96 5765.85 2033.83 5739.81 2053.62C5714.81 2072.38 5702.31 2090.08 5702.31 2106.75C5702.31 2116.12 5707.52 2123.42 5717.94 2128.62C5729.4 2133.83 5742.42 2138 5757 2141.12C5771.58 2143.21 5786.17 2144.77 5800.75 2145.81C5815.33 2146.85 5825.75 2147.9 5832 2148.94C5929.92 2128.1 6003.35 2115.6 6052.31 2111.44C6101.27 2106.23 6132 2106.75 6144.5 2113C6157 2118.21 6154.4 2127.06 6136.69 2139.56C6120.02 2151.02 6093.98 2163.52 6058.56 2177.06C6023.15 2189.56 5982 2201.02 5935.12 2211.44C5888.25 2221.85 5841.9 2228.1 5796.06 2230.19C5750.23 2231.23 5707.52 2226.54 5667.94 2216.12C5629.4 2205.71 5600.75 2185.92 5582 2156.75ZM5855.44 1800.5C5834.6 1800.5 5814.81 1806.23 5796.06 1817.69C5777.31 1829.15 5760.12 1843.73 5744.5 1861.44C5729.92 1878.1 5717.42 1896.85 5707 1917.69C5696.58 1937.48 5688.77 1956.23 5683.56 1973.94C5685.65 1974.98 5687.21 1975.5 5688.25 1975.5H5692.94C5707.52 1975.5 5724.19 1969.25 5742.94 1956.75C5761.69 1944.25 5779.4 1929.15 5796.06 1911.44C5812.73 1892.69 5826.79 1873.42 5838.25 1853.62C5849.71 1833.83 5855.44 1816.12 5855.44 1800.5ZM6132 2167.69C6132 2158.31 6132 2151.02 6132 2145.81C6132 2140.6 6132.52 2135.92 6133.56 2131.75C6135.65 2126.54 6138.25 2121.33 6141.38 2116.12C6144.5 2110.92 6148.67 2104.15 6153.88 2095.81C6162.21 2081.23 6177.83 2055.71 6200.75 2019.25C6223.67 1982.79 6248.15 1944.25 6274.19 1903.62C6300.23 1863 6324.71 1824.46 6347.62 1788C6371.58 1751.54 6388.25 1726.02 6397.62 1711.44C6398.67 1710.4 6401.27 1709.88 6405.44 1709.88C6410.65 1709.88 6414.29 1709.88 6416.38 1709.88C6418.46 1709.88 6422.1 1709.88 6427.31 1709.88C6432.52 1709.88 6435.65 1710.4 6436.69 1711.44C6437.73 1712.48 6439.81 1715.08 6442.94 1719.25C6447.1 1723.42 6451.27 1728.1 6455.44 1733.31C6460.65 1737.48 6464.81 1741.65 6467.94 1745.81C6472.1 1749.98 6475.23 1752.06 6477.31 1752.06C6486.69 1752.06 6496.58 1748.94 6507 1742.69C6517.42 1736.44 6527.83 1729.67 6538.25 1722.38C6549.71 1714.04 6561.17 1706.75 6572.62 1700.5C6584.08 1694.25 6596.06 1691.12 6608.56 1691.12C6622.1 1691.12 6634.6 1694.25 6646.06 1700.5C6657.52 1706.75 6667.42 1714.56 6675.75 1723.94C6684.08 1733.31 6690.33 1743.73 6694.5 1755.19C6699.71 1766.65 6702.31 1778.1 6702.31 1789.56C6702.31 1813.52 6698.67 1836.44 6691.38 1858.31C6685.12 1880.19 6677.83 1902.06 6669.5 1923.94C6661.17 1944.77 6653.35 1966.12 6646.06 1988C6639.81 2008.83 6636.69 2030.71 6636.69 2053.62C6636.69 2076.54 6639.29 2093.21 6644.5 2103.62C6649.71 2113 6664.29 2117.69 6688.25 2117.69C6716.38 2117.69 6742.94 2113.52 6767.94 2105.19C6793.98 2096.85 6820.54 2092.69 6847.62 2092.69C6847.62 2117.69 6839.81 2138.52 6824.19 2155.19C6809.6 2171.85 6790.85 2185.4 6767.94 2195.81C6746.06 2205.19 6722.1 2211.96 6696.06 2216.12C6671.06 2219.25 6648.15 2220.81 6627.31 2220.81C6587.73 2220.81 6558.56 2209.88 6539.81 2188C6522.1 2165.08 6513.25 2134.88 6513.25 2097.38C6513.25 2072.38 6517.42 2048.94 6525.75 2027.06C6535.12 2005.19 6545.02 1983.83 6555.44 1963C6566.9 1942.17 6577.31 1921.33 6586.69 1900.5C6596.06 1879.67 6600.75 1857.27 6600.75 1833.31C6600.75 1827.06 6599.71 1818.73 6597.62 1808.31C6595.54 1797.9 6588.77 1792.69 6577.31 1792.69C6542.94 1792.69 6511.69 1803.62 6483.56 1825.5C6456.48 1847.38 6431.48 1874.98 6408.56 1908.31C6386.69 1941.65 6366.38 1977.58 6347.62 2016.12C6329.92 2054.67 6312.73 2090.6 6296.06 2123.94C6280.44 2157.27 6265.33 2184.88 6250.75 2206.75C6236.17 2228.62 6221.06 2239.56 6205.44 2239.56C6183.56 2239.56 6165.85 2232.79 6152.31 2219.25C6138.77 2205.71 6132 2188.52 6132 2167.69Z" fill="#FFF2D9"/>
<path d="M3749.31 3741.91C3749.31 3713.59 3754.68 3685.27 3765.42 3656.95C3776.17 3628.63 3788.86 3600.8 3803.51 3573.45C3818.16 3545.13 3832.81 3517.3 3847.46 3489.96C3863.08 3462.61 3874.8 3435.76 3882.61 3409.39C3864.06 3420.13 3847.94 3426.48 3834.27 3428.43C3821.58 3429.41 3805.95 3429.9 3787.4 3429.9C3785.44 3429.9 3779.1 3429.9 3768.35 3429.9C3758.59 3428.92 3752.24 3428.43 3749.31 3428.43C3755.17 3406.95 3765.91 3387.91 3781.54 3371.3C3797.16 3353.73 3814.74 3339.08 3834.27 3327.36C3854.78 3314.66 3875.78 3304.41 3897.26 3296.6C3919.72 3287.81 3939.74 3280.97 3957.32 3276.09C3986.62 3230.19 4010.54 3184.29 4029.1 3138.39C4047.65 3091.52 4066.21 3046.11 4084.76 3002.16C4104.29 2957.24 4126.75 2914.76 4152.14 2874.72C4178.51 2833.71 4213.67 2796.11 4257.61 2761.93L4264.94 2817.59L4081.83 3246.79C4092.57 3243.86 4105.76 3240.93 4121.38 3238C4137.01 3235.07 4152.63 3232.14 4168.26 3229.21C4184.86 3226.29 4200.48 3223.84 4215.13 3221.89C4230.76 3218.96 4243.94 3216.03 4254.68 3213.1C4255.66 3213.1 4258.59 3213.1 4263.47 3213.1C4268.35 3212.12 4272.26 3211.64 4275.19 3211.64C4288.86 3211.64 4300.09 3214.08 4308.88 3218.96C4317.67 3223.84 4324.99 3234.59 4330.85 3251.19C4264.45 3270.72 4204.39 3291.23 4150.68 3312.71C4096.97 3334.2 4050.09 3362.52 4010.05 3397.67C3970.99 3431.85 3938.76 3475.8 3913.37 3529.51C3888.96 3582.24 3871.87 3650.11 3862.1 3733.12C3862.1 3750.7 3863.08 3766.81 3865.03 3781.46C3866.99 3796.11 3879.19 3804.9 3901.65 3807.83C3924.12 3807.83 3945.11 3803.43 3964.64 3794.64C3984.17 3785.86 4003.22 3776.58 4021.77 3766.81C4040.33 3756.07 4058.88 3746.3 4077.44 3737.52C4096.97 3728.73 4117.96 3724.33 4140.42 3724.33C4140.42 3747.77 4130.17 3769.25 4109.66 3788.79C4089.15 3808.32 4064.25 3825.41 4034.96 3840.05C4006.63 3854.7 3977.34 3865.93 3947.06 3873.75C3916.79 3881.56 3891.89 3885.46 3872.36 3885.46C3852.83 3885.46 3835.25 3881.56 3819.62 3873.75C3804 3865.93 3790.81 3855.68 3780.07 3842.98C3770.31 3829.31 3762.49 3813.69 3756.63 3796.11C3751.75 3778.53 3749.31 3760.46 3749.31 3741.91ZM4134.56 3788.79C4134.56 3775.11 4136.03 3763.39 4138.96 3753.63C4141.89 3742.89 4147.26 3729.21 4155.07 3712.61C4161.91 3702.85 4174.12 3684.29 4191.69 3656.95C4210.25 3629.61 4229.29 3600.8 4248.82 3570.52C4269.33 3540.25 4288.37 3511.93 4305.95 3485.56C4324.51 3458.22 4337.2 3439.18 4344.04 3428.43C4352.83 3415.74 4359.66 3408.9 4364.54 3407.93C4369.43 3406.95 4378.71 3406.46 4392.38 3406.46C4401.17 3406.46 4410.44 3406.95 4420.21 3407.93C4430.95 3408.9 4437.79 3415.74 4440.72 3428.43C4427.04 3461.64 4408.49 3493.38 4385.05 3523.65C4362.59 3552.95 4340.13 3582.24 4317.67 3611.54C4296.19 3640.84 4277.14 3671.11 4260.54 3702.36C4243.94 3732.63 4235.64 3765.35 4235.64 3800.5C4239.54 3800.5 4245.4 3800.99 4253.22 3801.97C4262.01 3802.95 4271.28 3803.92 4281.05 3804.9C4290.81 3805.88 4299.6 3806.85 4307.42 3807.83C4316.21 3808.8 4322.55 3808.8 4326.46 3807.83C4332.32 3806.85 4342.08 3804.9 4355.76 3801.97C4370.4 3798.06 4385.54 3794.16 4401.17 3790.25C4417.77 3786.34 4433.39 3782.44 4448.04 3778.53C4462.69 3774.62 4472.94 3771.7 4478.8 3769.74C4478.8 3771.7 4478.8 3775.11 4478.8 3780C4479.78 3783.9 4480.27 3786.83 4480.27 3788.79C4480.27 3808.32 4470.99 3824.43 4452.44 3837.12C4434.86 3849.82 4413.86 3860.07 4389.45 3867.89C4366.01 3874.72 4341.6 3879.61 4316.21 3882.54C4291.79 3884.49 4272.75 3885.46 4259.08 3885.46C4244.43 3885.46 4229.29 3884 4213.67 3881.07C4199.02 3877.16 4185.83 3871.3 4174.12 3863.49C4162.4 3855.68 4152.63 3845.91 4144.82 3834.2C4137.98 3821.5 4134.56 3806.36 4134.56 3788.79ZM4560.83 2930.39C4573.53 2930.39 4585.25 2930.88 4595.99 2931.85C4606.73 2932.83 4616.01 2935.27 4623.82 2939.18C4631.63 2943.08 4637.98 2948.94 4642.87 2956.75C4647.75 2964.57 4650.19 2975.31 4650.19 2988.98C4650.19 2994.84 4650.19 3001.19 4650.19 3008.02C4650.19 3014.86 4649.21 3021.7 4647.26 3028.53C4646.28 3034.39 4643.84 3039.76 4639.94 3044.64C4636.03 3048.55 4629.68 3050.5 4620.89 3050.5C4607.22 3050.5 4595.99 3045.62 4587.2 3035.86C4579.39 3026.09 4573.53 3014.86 4569.62 3002.16C4565.72 2988.49 4563.28 2974.82 4562.3 2961.15C4561.32 2947.48 4560.83 2937.22 4560.83 2930.39ZM4483.2 3750.7C4483.2 3743.86 4483.69 3733.61 4484.66 3719.94C4486.62 3705.29 4488.57 3691.13 4490.52 3677.46C4492.47 3663.79 4494.43 3651.58 4496.38 3640.84C4498.33 3629.12 4500.29 3621.79 4502.24 3618.86L4768.84 3085.66C4772.75 3077.85 4780.07 3067.11 4790.81 3053.43C4802.53 3038.79 4814.74 3024.14 4827.44 3009.49C4841.11 2993.86 4854.29 2979.7 4866.99 2967.01C4880.66 2953.34 4891.89 2942.59 4900.68 2934.78C4907.51 2936.73 4912.4 2940.15 4915.33 2945.04C4918.26 2949.92 4920.21 2955.78 4921.19 2962.61C4922.16 2968.47 4922.16 2974.33 4921.19 2980.19C4921.19 2986.05 4921.19 2990.93 4921.19 2994.84C4921.19 2999.72 4921.19 3006.56 4921.19 3015.35C4921.19 3024.14 4920.7 3028.53 4919.72 3028.53C4909.96 3054.9 4894.82 3086.15 4874.31 3122.28C4853.8 3158.41 4830.85 3196.99 4805.46 3238C4780.07 3279.02 4753.71 3321.99 4726.36 3366.91C4699.99 3410.86 4675.58 3454.8 4653.12 3498.75C4631.63 3541.71 4613.57 3583.22 4598.92 3623.26C4585.25 3663.3 4578.41 3699.92 4578.41 3733.12C4578.41 3750.7 4583.29 3764.86 4593.06 3775.6C4603.8 3785.37 4615.03 3794.16 4626.75 3801.97C4638.47 3809.78 4649.21 3817.59 4658.98 3825.41C4669.72 3833.22 4675.09 3843.96 4675.09 3857.63C4675.09 3866.42 4671.19 3873.26 4663.37 3878.14C4655.56 3882.05 4646.28 3884 4635.54 3884C4594.53 3884 4558.88 3872.77 4528.61 3850.31C4498.33 3826.87 4483.2 3793.67 4483.2 3750.7ZM4856.73 3750.7C4856.73 3743.86 4857.22 3733.61 4858.2 3719.94C4860.15 3705.29 4862.1 3691.13 4864.06 3677.46C4866.01 3663.79 4867.96 3651.58 4869.92 3640.84C4871.87 3629.12 4873.82 3621.79 4875.78 3618.86L5142.38 3085.66C5146.28 3077.85 5153.61 3067.11 5164.35 3053.43C5176.07 3038.79 5188.28 3024.14 5200.97 3009.49C5214.64 2993.86 5227.83 2979.7 5240.52 2967.01C5254.19 2953.34 5265.42 2942.59 5274.21 2934.78C5281.05 2936.73 5285.93 2940.15 5288.86 2945.04C5291.79 2949.92 5293.74 2955.78 5294.72 2962.61C5295.7 2968.47 5295.7 2974.33 5294.72 2980.19C5294.72 2986.05 5294.72 2990.93 5294.72 2994.84C5294.72 2999.72 5294.72 3006.56 5294.72 3015.35C5294.72 3024.14 5294.23 3028.53 5293.26 3028.53C5283.49 3054.9 5268.35 3086.15 5247.85 3122.28C5227.34 3158.41 5204.39 3196.99 5179 3238C5153.61 3279.02 5127.24 3321.99 5099.9 3366.91C5073.53 3410.86 5049.12 3454.8 5026.65 3498.75C5005.17 3541.71 4987.1 3583.22 4972.46 3623.26C4958.78 3663.3 4951.95 3699.92 4951.95 3733.12C4951.95 3750.7 4956.83 3764.86 4966.6 3775.6C4977.34 3785.37 4988.57 3794.16 5000.29 3801.97C5012.01 3809.78 5022.75 3817.59 5032.51 3825.41C5043.26 3833.22 5048.63 3843.96 5048.63 3857.63C5048.63 3866.42 5044.72 3873.26 5036.91 3878.14C5029.1 3882.05 5019.82 3884 5009.08 3884C4968.06 3884 4932.42 3872.77 4902.14 3850.31C4871.87 3826.87 4856.73 3793.67 4856.73 3750.7Z" fill="#FFF2D9"/>
<path d="M889.312 10294.8C889.312 10281.3 892.438 10266.2 898.688 10249.5C905.979 10231.8 916.917 10220.3 931.5 10215.1C933.583 10214.1 936.188 10213.6 939.312 10213.6C943.479 10212.5 947.125 10211.5 950.25 10210.4C954.417 10209.4 958.062 10208.9 961.188 10208.9V10294.8C967.438 10288.6 976.812 10277.1 989.312 10260.4C1002.85 10243.8 1016.4 10226.1 1029.94 10207.3C1044.52 10187.5 1057.54 10168.8 1069 10151.1C1081.5 10133.4 1089.83 10120.3 1094 10112L1458.06 9402.62C1458.06 9402.62 1460.67 9399.5 1465.88 9393.25C1472.12 9387 1478.9 9382.83 1486.19 9380.75C1494.52 9377.62 1503.38 9378.67 1512.75 9383.88C1522.12 9389.08 1530.98 9402.62 1539.31 9424.5L1317.44 9871.38V9890.12C1346.6 9894.29 1373.69 9900.54 1398.69 9908.88C1423.69 9916.17 1445.04 9927.1 1462.75 9941.69C1481.5 9956.27 1496.08 9974.5 1506.5 9996.38C1516.92 10017.2 1522.12 10042.7 1522.12 10072.9C1522.12 10124 1508.58 10171.9 1481.5 10216.7C1455.46 10260.4 1421.6 10299 1379.94 10332.3C1338.27 10364.6 1291.92 10390.6 1240.88 10410.4C1190.88 10429.2 1142.44 10438.6 1095.56 10438.6C1074.73 10438.6 1052.33 10436 1028.38 10430.8C1004.42 10424.5 982.021 10415.6 961.188 10404.2C941.396 10391.7 924.208 10376.6 909.625 10358.9C896.083 10340.1 889.312 10318.8 889.312 10294.8ZM1334.62 9988.56C1320.04 9988.56 1303.9 9995.33 1286.19 10008.9C1269.52 10022.4 1252.85 10040.1 1236.19 10062C1219.52 10082.8 1203.38 10106.8 1187.75 10133.9C1172.12 10159.9 1158.06 10186 1145.56 10212C1134.1 10238 1124.73 10262.5 1117.44 10285.4C1110.15 10308.4 1106.5 10326.6 1106.5 10340.1C1135.67 10340.1 1168.48 10333.4 1204.94 10319.8C1241.4 10306.3 1275.25 10288.6 1306.5 10266.7C1338.79 10243.8 1365.35 10217.7 1386.19 10188.6C1408.06 10158.4 1419 10127.1 1419 10094.8C1419 10066.7 1413.27 10042.2 1401.81 10021.4C1390.35 9999.5 1367.96 9988.56 1334.62 9988.56ZM1942.44 10316.7C1942.44 10285.4 1948.69 10256.8 1961.19 10230.8C1974.73 10203.7 1989.31 10178.1 2004.94 10154.2C2020.56 10130.2 2034.62 10106.3 2047.12 10082.3C2060.67 10058.4 2067.44 10032.8 2067.44 10005.8C2067.44 9999.5 2066.92 9992.21 2065.88 9983.88C2065.88 9974.5 2064.83 9965.65 2062.75 9957.31C2061.71 9948.98 2058.58 9942.21 2053.38 9937C2049.21 9930.75 2043.48 9927.62 2036.19 9927.62C2035.15 9927.62 2033.06 9928.15 2029.94 9929.19C2027.85 9929.19 2026.81 9929.71 2026.81 9930.75C2012.23 9950.54 1994.52 9972.94 1973.69 9997.94C1953.9 10021.9 1932.54 10045.9 1909.62 10069.8C1886.71 10093.8 1864.31 10116.7 1842.44 10138.6C1820.56 10160.4 1800.77 10178.7 1783.06 10193.2C1770.56 10204.7 1753.38 10220.3 1731.5 10240.1C1710.67 10259.9 1689.31 10279.7 1667.44 10299.5C1646.6 10318.2 1627.85 10334.9 1611.19 10349.5C1595.56 10364.1 1586.71 10371.4 1584.62 10371.4L1512.75 10310.4C1522.12 10310.4 1531.5 10308.4 1540.88 10304.2C1549.21 10300 1557.54 10295.3 1565.88 10290.1C1628.38 10248.5 1684.62 10200.5 1734.62 10146.4C1785.67 10092.2 1835.67 10033.9 1884.62 9971.38C1886.71 9968.25 1891.92 9959.4 1900.25 9944.81C1909.62 9929.19 1919.52 9912 1929.94 9893.25C1940.35 9873.46 1950.77 9854.19 1961.19 9835.44C1971.6 9815.65 1979.42 9800.02 1984.62 9788.56C1990.88 9775.02 1994.52 9764.08 1995.56 9755.75C1997.65 9747.42 1999.21 9741.17 2000.25 9737C2002.33 9731.79 2005.46 9728.15 2009.62 9726.06C2013.79 9723.98 2022.65 9722.94 2036.19 9722.94C2038.27 9722.94 2042.96 9723.46 2050.25 9724.5C2058.58 9725.54 2063.79 9726.58 2065.88 9727.62C2079.42 9755.75 2091.4 9780.75 2101.81 9802.62C2112.23 9824.5 2121.08 9845.33 2128.38 9865.12C2135.67 9883.88 2140.88 9903.15 2144 9922.94C2148.17 9942.73 2150.25 9964.6 2150.25 9988.56C2136.71 10022.9 2121.6 10058.4 2104.94 10094.8C2088.27 10130.2 2074.21 10164.1 2062.75 10196.4C2051.29 10228.7 2044 10257.8 2040.88 10283.9C2038.79 10309.9 2044.52 10330.8 2058.06 10346.4C2072.65 10361 2096.6 10368.8 2129.94 10369.8C2164.31 10370.9 2212.75 10362 2275.25 10343.2C2291.92 10351.6 2293.48 10362 2279.94 10374.5C2266.4 10386 2245.56 10396.9 2217.44 10407.3C2190.35 10417.7 2160.15 10426.6 2126.81 10433.9C2094.52 10440.1 2067.44 10441.7 2045.56 10438.6C2025.77 10438.6 2009.1 10435.4 1995.56 10429.2C1983.06 10421.9 1972.65 10412.5 1964.31 10401.1C1957.02 10389.6 1951.29 10376.6 1947.12 10362C1944 10347.4 1942.44 10332.3 1942.44 10316.7ZM2215.88 10305.8C2215.88 10301.6 2215.88 10293.2 2215.88 10280.8C2216.92 10267.2 2217.44 10258.4 2217.44 10254.2C2250.77 10178.1 2293.48 10107.8 2345.56 10043.2C2397.65 9978.67 2456.5 9921.38 2522.12 9871.38C2524.21 9871.38 2527.33 9870.85 2531.5 9869.81C2536.71 9867.73 2540.35 9866.69 2542.44 9866.69C2570.56 9866.69 2593.48 9872.94 2611.19 9885.44C2629.94 9896.9 2644.52 9912.52 2654.94 9932.31C2666.4 9951.06 2674.21 9972.42 2678.38 9996.38C2682.54 10019.3 2684.62 10041.7 2684.62 10063.6C2684.62 10104.2 2675.25 10146.9 2656.5 10191.7C2637.75 10235.4 2612.23 10276.1 2579.94 10313.6C2548.69 10350 2512.75 10380.2 2472.12 10404.2C2431.5 10427.1 2389.31 10438.6 2345.56 10438.6C2301.81 10438.6 2269 10427.1 2247.12 10404.2C2226.29 10380.2 2215.88 10347.4 2215.88 10305.8ZM2337.75 10287C2337.75 10298.5 2342.44 10306.3 2351.81 10310.4C2361.19 10314.6 2370.56 10316.7 2379.94 10316.7C2405.98 10316.7 2430.98 10309.9 2454.94 10296.4C2479.94 10281.8 2501.81 10264.1 2520.56 10243.2C2540.35 10221.4 2555.98 10197.4 2567.44 10171.4C2578.9 10145.3 2584.62 10120.3 2584.62 10096.4C2584.62 10084.9 2583.58 10072.4 2581.5 10058.9C2580.46 10044.3 2577.33 10031.8 2572.12 10021.4C2566.92 10009.9 2558.58 10001.1 2547.12 9994.81C2536.71 9988.56 2521.6 9987.52 2501.81 9991.69C2487.23 9994.81 2470.56 10008.4 2451.81 10032.3C2433.06 10056.3 2414.83 10084.4 2397.12 10116.7C2380.46 10147.9 2366.4 10179.7 2354.94 10212C2343.48 10243.2 2337.75 10268.2 2337.75 10287ZM2398.69 9791.69C2370.56 9791.69 2352.33 9787 2344 9777.62C2336.71 9767.21 2335.67 9755.75 2340.88 9743.25C2347.12 9730.75 2357.02 9718.25 2370.56 9705.75C2385.15 9693.25 2399.73 9684.4 2414.31 9679.19C2428.9 9672.94 2441.92 9672.42 2453.38 9677.62C2464.83 9681.79 2470.56 9694.81 2470.56 9716.69C2470.56 9739.6 2463.79 9757.83 2450.25 9771.38C2437.75 9784.92 2420.56 9791.69 2398.69 9791.69ZM2665.88 9780.75C2637.75 9780.75 2619.52 9776.06 2611.19 9766.69C2603.9 9756.27 2602.85 9744.81 2608.06 9732.31C2614.31 9719.81 2624.21 9707.31 2637.75 9694.81C2652.33 9682.31 2666.92 9673.46 2681.5 9668.25C2696.08 9662 2709.1 9661.48 2720.56 9666.69C2732.02 9670.85 2737.75 9683.88 2737.75 9705.75C2737.75 9728.67 2730.98 9746.9 2717.44 9760.44C2704.94 9773.98 2687.75 9780.75 2665.88 9780.75ZM2733.06 10294.8C2733.06 10287.5 2733.58 10276.6 2734.62 10262C2736.71 10246.4 2738.79 10231.3 2740.88 10216.7C2742.96 10202.1 2745.04 10189.1 2747.12 10177.6C2749.21 10165.1 2751.29 10157.3 2753.38 10154.2L3037.75 9585.44C3041.92 9577.1 3049.73 9565.65 3061.19 9551.06C3073.69 9535.44 3086.71 9519.81 3100.25 9504.19C3114.83 9487.52 3128.9 9472.42 3142.44 9458.88C3157.02 9444.29 3169 9432.83 3178.38 9424.5C3185.67 9426.58 3190.88 9430.23 3194 9435.44C3197.12 9440.65 3199.21 9446.9 3200.25 9454.19C3201.29 9460.44 3201.29 9466.69 3200.25 9472.94C3200.25 9479.19 3200.25 9484.4 3200.25 9488.56C3200.25 9493.77 3200.25 9501.06 3200.25 9510.44C3200.25 9519.81 3199.73 9524.5 3198.69 9524.5C3188.27 9552.62 3172.12 9585.96 3150.25 9624.5C3128.38 9663.04 3103.9 9704.19 3076.81 9747.94C3049.73 9791.69 3021.6 9837.52 2992.44 9885.44C2964.31 9932.31 2938.27 9979.19 2914.31 10026.1C2891.4 10071.9 2872.12 10116.2 2856.5 10158.9C2841.92 10201.6 2834.62 10240.6 2834.62 10276.1C2834.62 10294.8 2839.83 10309.9 2850.25 10321.4C2861.71 10331.8 2873.69 10341.2 2886.19 10349.5C2898.69 10357.8 2910.15 10366.2 2920.56 10374.5C2932.02 10382.8 2937.75 10394.3 2937.75 10408.9C2937.75 10418.2 2933.58 10425.5 2925.25 10430.8C2916.92 10434.9 2907.02 10437 2895.56 10437C2851.81 10437 2813.79 10425 2781.5 10401.1C2749.21 10376.1 2733.06 10340.6 2733.06 10294.8ZM3131.5 10294.8C3131.5 10287.5 3132.02 10276.6 3133.06 10262C3135.15 10246.4 3137.23 10231.3 3139.31 10216.7C3141.4 10202.1 3143.48 10189.1 3145.56 10177.6C3147.65 10165.1 3149.73 10157.3 3151.81 10154.2L3436.19 9585.44C3440.35 9577.1 3448.17 9565.65 3459.62 9551.06C3472.12 9535.44 3485.15 9519.81 3498.69 9504.19C3513.27 9487.52 3527.33 9472.42 3540.88 9458.88C3555.46 9444.29 3567.44 9432.83 3576.81 9424.5C3584.1 9426.58 3589.31 9430.23 3592.44 9435.44C3595.56 9440.65 3597.65 9446.9 3598.69 9454.19C3599.73 9460.44 3599.73 9466.69 3598.69 9472.94C3598.69 9479.19 3598.69 9484.4 3598.69 9488.56C3598.69 9493.77 3598.69 9501.06 3598.69 9510.44C3598.69 9519.81 3598.17 9524.5 3597.12 9524.5C3586.71 9552.62 3570.56 9585.96 3548.69 9624.5C3526.81 9663.04 3502.33 9704.19 3475.25 9747.94C3448.17 9791.69 3420.04 9837.52 3390.88 9885.44C3362.75 9932.31 3336.71 9979.19 3312.75 10026.1C3289.83 10071.9 3270.56 10116.2 3254.94 10158.9C3240.35 10201.6 3233.06 10240.6 3233.06 10276.1C3233.06 10294.8 3238.27 10309.9 3248.69 10321.4C3260.15 10331.8 3272.12 10341.2 3284.62 10349.5C3297.12 10357.8 3308.58 10366.2 3319 10374.5C3330.46 10382.8 3336.19 10394.3 3336.19 10408.9C3336.19 10418.2 3332.02 10425.5 3323.69 10430.8C3315.35 10434.9 3305.46 10437 3294 10437C3250.25 10437 3212.23 10425 3179.94 10401.1C3147.65 10376.1 3131.5 10340.6 3131.5 10294.8ZM3548.69 10305.8C3548.69 10301.6 3548.69 10293.2 3548.69 10280.8C3549.73 10267.2 3550.25 10258.4 3550.25 10254.2C3583.58 10178.1 3626.29 10107.8 3678.38 10043.2C3730.46 9978.67 3789.31 9921.38 3854.94 9871.38C3857.02 9871.38 3860.15 9870.85 3864.31 9869.81C3869.52 9867.73 3873.17 9866.69 3875.25 9866.69C3903.38 9866.69 3926.29 9872.94 3944 9885.44C3962.75 9896.9 3977.33 9912.52 3987.75 9932.31C3999.21 9951.06 4007.02 9972.42 4011.19 9996.38C4015.35 10019.3 4017.44 10041.7 4017.44 10063.6C4017.44 10104.2 4008.06 10146.9 3989.31 10191.7C3970.56 10235.4 3945.04 10276.1 3912.75 10313.6C3881.5 10350 3845.56 10380.2 3804.94 10404.2C3764.31 10427.1 3722.12 10438.6 3678.38 10438.6C3634.62 10438.6 3601.81 10427.1 3579.94 10404.2C3559.1 10380.2 3548.69 10347.4 3548.69 10305.8ZM3670.56 10287C3670.56 10298.5 3675.25 10306.3 3684.62 10310.4C3694 10314.6 3703.38 10316.7 3712.75 10316.7C3738.79 10316.7 3763.79 10309.9 3787.75 10296.4C3812.75 10281.8 3834.62 10264.1 3853.38 10243.2C3873.17 10221.4 3888.79 10197.4 3900.25 10171.4C3911.71 10145.3 3917.44 10120.3 3917.44 10096.4C3917.44 10084.9 3916.4 10072.4 3914.31 10058.9C3913.27 10044.3 3910.15 10031.8 3904.94 10021.4C3899.73 10009.9 3891.4 10001.1 3879.94 9994.81C3869.52 9988.56 3854.42 9987.52 3834.62 9991.69C3820.04 9994.81 3803.38 10008.4 3784.62 10032.3C3765.88 10056.3 3747.65 10084.4 3729.94 10116.7C3713.27 10147.9 3699.21 10179.7 3687.75 10212C3676.29 10243.2 3670.56 10268.2 3670.56 10287ZM3881.5 10874.5C3881.5 10873.5 3882.02 10871.4 3883.06 10868.2C3883.06 10865.1 3883.06 10863 3883.06 10862C3884.1 10858.9 3885.67 10854.2 3887.75 10847.9C3889.83 10842.7 3891.92 10837 3894 10830.8C3896.08 10824.5 3898.17 10818.2 3900.25 10812C3902.33 10806.8 3903.9 10803.1 3904.94 10801.1C3911.19 10786.5 3921.6 10763 3936.19 10730.8C3950.77 10699.5 3967.44 10663.6 3986.19 10622.9C4004.94 10583.4 4024.73 10541.7 4045.56 10497.9C4065.35 10454.2 4084.62 10412.5 4103.38 10372.9C4122.12 10332.3 4138.79 10296.4 4153.38 10265.1C4169 10232.8 4180.46 10208.9 4187.75 10193.2C4201.29 10171.4 4220.04 10145.9 4244 10116.7C4269 10087.5 4296.6 10057.8 4326.81 10027.6C4357.02 9997.42 4389.31 9968.25 4423.69 9940.12C4459.1 9910.96 4493.48 9885.44 4526.81 9863.56C4561.19 9840.65 4594.52 9822.42 4626.81 9808.88C4659.1 9794.29 4687.75 9787 4712.75 9787C4750.25 9787 4776.81 9793.77 4792.44 9807.31C4808.06 9820.85 4815.88 9848.46 4815.88 9890.12C4815.88 9934.92 4807.02 9979.71 4789.31 10024.5C4772.65 10068.2 4749.73 10109.9 4720.56 10149.5C4691.4 10189.1 4657.02 10225 4617.44 10257.3C4578.9 10289.6 4537.75 10316.2 4494 10337C4451.29 10357.8 4407.02 10372.4 4361.19 10380.8C4315.35 10388 4271.08 10386.5 4228.38 10376.1L4208.06 10396.4L4004.94 10902.6C4001.81 10912 3992.96 10917.7 3978.38 10919.8C3963.79 10922.9 3951.81 10924.5 3942.44 10924.5C3928.9 10924.5 3915.35 10919.8 3901.81 10910.4C3888.27 10902.1 3881.5 10890.1 3881.5 10874.5ZM4612.75 10113.6C4661.71 10061.5 4693.48 10020.3 4708.06 9990.12C4722.65 9958.88 4725.77 9937 4717.44 9924.5C4709.1 9912 4692.44 9907.31 4667.44 9910.44C4642.44 9913.56 4614.31 9922.42 4583.06 9937C4551.81 9951.58 4520.04 9970.85 4487.75 9994.81C4456.5 10018.8 4430.46 10044.8 4409.62 10072.9C4400.25 10083.4 4388.79 10097.4 4375.25 10115.1C4361.71 10131.8 4348.17 10149 4334.62 10166.7C4322.12 10183.4 4311.19 10198.5 4301.81 10212C4292.44 10225.5 4287.75 10233.4 4287.75 10235.4V10268.2C4359.62 10268.2 4421.08 10257.8 4472.12 10237C4523.17 10215.1 4570.04 10174 4612.75 10113.6Z" fill="#FFF2D9"/>
<path d="M2070.73 5915.11C2070.73 5882.56 2072.68 5850.01 2076.59 5817.45C2081.79 5784.9 2087 5753 2092.21 5721.75C2098.72 5689.2 2103.93 5656.65 2107.84 5624.09C2113.04 5590.24 2115.65 5556.39 2115.65 5522.53C2072.68 5522.53 2035.57 5524.48 2004.32 5528.39C1973.07 5532.3 1942.47 5536.2 1912.52 5540.11C1882.58 5544.02 1850.67 5547.27 1816.82 5549.88C1782.97 5551.18 1741.95 5550.53 1693.77 5547.92C1658.62 5586.98 1618.25 5628.65 1572.68 5672.92C1528.41 5717.19 1480.88 5758.21 1430.1 5795.97C1379.32 5833.73 1325.93 5865.63 1269.95 5891.67C1213.96 5916.41 1157.32 5928.78 1100.02 5928.78C1060.96 5928.78 1023.2 5922.27 986.742 5909.25C951.586 5896.23 920.336 5878 892.992 5854.56C865.648 5831.12 844.164 5803.13 828.539 5770.58C812.914 5736.72 805.102 5699.61 805.102 5659.25C805.102 5638.42 808.357 5622.79 814.867 5612.38C822.68 5600.66 838.305 5594.8 861.742 5594.8C873.461 5594.8 883.878 5605.86 892.992 5628C902.107 5648.83 913.826 5672.92 928.148 5700.27C943.773 5726.31 963.305 5750.4 986.742 5772.53C1010.18 5793.36 1042.08 5803.78 1082.45 5803.78C1131.92 5803.78 1180.1 5794.67 1226.98 5776.44C1275.15 5756.91 1320.73 5732.82 1363.7 5704.17C1407.97 5674.22 1448.98 5641.02 1486.74 5604.56C1525.8 5568.1 1560.96 5532.3 1592.21 5497.14C1588.3 5464.59 1576.59 5440.5 1557.05 5424.88C1537.52 5409.25 1516.69 5393.62 1494.55 5378C1473.72 5362.38 1454.84 5341.54 1437.91 5315.5C1420.99 5289.46 1412.52 5248.44 1412.52 5192.45C1412.52 5113.03 1436.61 5051.18 1484.79 5006.91C1532.97 4961.33 1598.72 4938.55 1682.05 4938.55C1706.79 4938.55 1730.88 4941.15 1754.32 4946.36C1779.06 4951.57 1803.8 4958.08 1828.54 4965.89C1853.28 4972.4 1877.37 4978.26 1900.8 4983.47C1925.54 4988.68 1950.28 4991.28 1975.02 4991.28C1990.65 4991.28 2003.02 4989.33 2012.13 4985.42C2022.55 4981.52 2031.66 4975.66 2039.48 4967.84C2047.29 4960.03 2055.75 4949.61 2064.87 4936.59C2073.98 4923.57 2085.7 4907.95 2100.02 4889.72C2107.84 4879.3 2119.55 4863.03 2135.18 4840.89C2152.11 4817.45 2170.34 4792.06 2189.87 4764.72C2209.4 4736.07 2230.23 4706.12 2252.37 4674.88C2274.5 4643.62 2295.34 4613.68 2314.87 4585.03C2334.4 4556.39 2351.98 4530.99 2367.6 4508.86C2383.23 4486.72 2394.29 4469.8 2400.8 4458.08C2415.13 4446.36 2428.15 4439.2 2439.87 4436.59C2451.59 4432.69 2465.26 4430.73 2480.88 4430.73C2496.51 4430.73 2508.23 4436.59 2516.04 4448.31C2523.85 4458.73 2528.41 4471.75 2529.71 4487.38C2532.32 4503 2532.97 4519.28 2531.66 4536.2C2531.66 4551.83 2531.66 4564.2 2531.66 4573.31C2531.66 4577.22 2531.66 4583.73 2531.66 4592.84C2531.66 4600.66 2531.01 4609.12 2529.71 4618.23C2529.71 4627.35 2529.71 4636.46 2529.71 4645.58C2529.71 4653.39 2529.71 4658.6 2529.71 4661.2C2525.8 4674.22 2519.29 4693.76 2510.18 4719.8C2502.37 4745.84 2493.25 4775.79 2482.84 4809.64C2472.42 4842.19 2461.35 4876.7 2449.63 4913.16C2439.22 4949.61 2428.8 4984.77 2418.38 5018.62C2409.27 5052.48 2400.8 5082.43 2392.99 5108.47C2385.18 5134.51 2379.97 5154.04 2377.37 5167.06C2376.07 5173.57 2374.11 5183.99 2371.51 5198.31C2368.9 5212.64 2366.3 5228.26 2363.7 5245.19C2361.09 5260.81 2358.49 5275.79 2355.88 5290.11C2353.28 5304.43 2351.98 5314.2 2351.98 5319.41C2363.7 5322.01 2375.41 5325.92 2387.13 5331.12C2398.85 5336.33 2404.71 5344.8 2404.71 5356.52C2404.71 5369.54 2399.5 5379.95 2389.09 5387.77C2379.97 5395.58 2368.9 5402.74 2355.88 5409.25C2342.86 5415.76 2330.49 5423.57 2318.77 5432.69C2308.36 5441.8 2302.5 5454.82 2301.2 5471.75C2298.59 5487.38 2294.03 5516.02 2287.52 5557.69C2281.01 5598.05 2273.2 5641.67 2264.09 5688.55C2256.27 5734.12 2248.46 5777.09 2240.65 5817.45C2234.14 5857.82 2228.93 5885.81 2225.02 5901.44C2223.72 5905.34 2221.12 5912.51 2217.21 5922.92C2213.3 5933.34 2208.75 5943.76 2203.54 5954.17C2198.33 5964.59 2193.12 5974.35 2187.91 5983.47C2182.71 5992.58 2178.8 5999.09 2176.2 6003C2144.95 5996.49 2119.55 5988.68 2100.02 5979.56C2080.49 5969.15 2070.73 5947.66 2070.73 5915.11ZM2037.52 5165.11C2021.9 5165.11 1999.76 5176.18 1971.12 5198.31C1943.77 5220.45 1916.43 5246.49 1889.09 5276.44C1861.74 5305.08 1837.65 5334.38 1816.82 5364.33C1795.99 5392.97 1785.57 5414.46 1785.57 5428.78C1793.38 5428.78 1808.36 5428.78 1830.49 5428.78C1853.93 5427.48 1878.02 5426.83 1902.76 5426.83C1928.8 5425.53 1952.89 5424.22 1975.02 5422.92C1998.46 5421.62 2014.74 5420.97 2023.85 5420.97C2029.06 5420.97 2036.87 5419.67 2047.29 5417.06C2059.01 5414.46 2070.08 5411.85 2080.49 5409.25C2090.91 5406.65 2100.02 5404.04 2107.84 5401.44C2116.95 5398.83 2122.16 5396.88 2123.46 5395.58C2124.76 5395.58 2125.41 5391.67 2125.41 5383.86C2125.41 5374.74 2125.41 5367.58 2125.41 5362.38C2125.41 5351.96 2123.46 5335.68 2119.55 5313.55C2116.95 5291.41 2111.74 5269.28 2103.93 5247.14C2097.42 5225.01 2088.3 5206.12 2076.59 5190.5C2066.17 5173.57 2053.15 5165.11 2037.52 5165.11ZM1488.7 5167.06C1488.7 5185.29 1495.21 5206.12 1508.23 5229.56C1521.25 5253 1537.52 5275.14 1557.05 5295.97C1576.59 5316.8 1597.42 5334.38 1619.55 5348.7C1641.69 5363.03 1662.52 5370.19 1682.05 5370.19C1700.28 5370.19 1721.77 5359.12 1746.51 5336.98C1771.25 5314.85 1794.68 5289.46 1816.82 5260.81C1840.26 5230.86 1859.79 5202.22 1875.41 5174.88C1891.04 5147.53 1898.85 5128.65 1898.85 5118.23C1898.85 5096.1 1891.04 5079.82 1875.41 5069.41C1861.09 5057.69 1843.51 5049.88 1822.68 5045.97C1803.15 5040.76 1782.32 5038.16 1760.18 5038.16C1738.04 5038.16 1719.82 5038.16 1705.49 5038.16C1687.26 5038.16 1665.13 5040.11 1639.09 5044.02C1614.35 5046.62 1590.91 5052.48 1568.77 5061.59C1546.64 5070.71 1527.76 5083.73 1512.13 5100.66C1496.51 5117.58 1488.7 5139.72 1488.7 5167.06ZM2074.63 5067.45C2103.28 5101.31 2129.97 5137.77 2154.71 5176.83C2179.45 5215.89 2202.89 5255.6 2225.02 5295.97L2398.85 4670.97L2074.63 5067.45ZM2545.34 5915.11C2545.34 5903.39 2545.34 5894.28 2545.34 5887.77C2545.34 5881.26 2545.99 5875.4 2547.29 5870.19C2549.89 5863.68 2553.15 5857.17 2557.05 5850.66C2560.96 5844.15 2566.17 5835.68 2572.68 5825.27C2583.1 5807.04 2602.63 5775.14 2631.27 5729.56C2659.92 5683.99 2690.52 5635.81 2723.07 5585.03C2755.62 5534.25 2786.22 5486.07 2814.87 5440.5C2844.82 5394.93 2865.65 5363.03 2877.37 5344.8C2878.67 5343.49 2881.92 5342.84 2887.13 5342.84C2893.64 5342.84 2898.2 5342.84 2900.8 5342.84C2903.41 5342.84 2907.97 5342.84 2914.48 5342.84C2920.99 5342.84 2924.89 5343.49 2926.2 5344.8C2927.5 5346.1 2930.1 5349.35 2934.01 5354.56C2939.22 5359.77 2944.42 5365.63 2949.63 5372.14C2956.14 5377.35 2961.35 5382.56 2965.26 5387.77C2970.47 5392.97 2974.37 5395.58 2976.98 5395.58C2988.7 5395.58 3001.07 5391.67 3014.09 5383.86C3027.11 5376.05 3040.13 5367.58 3053.15 5358.47C3067.47 5348.05 3081.79 5338.94 3096.12 5331.12C3110.44 5323.31 3125.41 5319.41 3141.04 5319.41C3157.97 5319.41 3173.59 5323.31 3187.91 5331.12C3202.24 5338.94 3214.61 5348.7 3225.02 5360.42C3235.44 5372.14 3243.25 5385.16 3248.46 5399.48C3254.97 5413.81 3258.23 5428.13 3258.23 5442.45C3258.23 5472.4 3253.67 5501.05 3244.55 5528.39C3236.74 5555.73 3227.63 5583.08 3217.21 5610.42C3206.79 5636.46 3197.03 5663.16 3187.91 5690.5C3180.1 5716.54 3176.2 5743.89 3176.2 5772.53C3176.2 5801.18 3179.45 5822.01 3185.96 5835.03C3192.47 5846.75 3210.7 5852.61 3240.65 5852.61C3275.8 5852.61 3309.01 5847.4 3340.26 5836.98C3372.81 5826.57 3406.01 5821.36 3439.87 5821.36C3439.87 5852.61 3430.1 5878.65 3410.57 5899.48C3392.34 5920.32 3368.9 5937.24 3340.26 5950.27C3312.91 5961.98 3282.97 5970.45 3250.41 5975.66C3219.16 5979.56 3190.52 5981.52 3164.48 5981.52C3115 5981.52 3078.54 5967.84 3055.1 5940.5C3032.97 5911.85 3021.9 5874.09 3021.9 5827.22C3021.9 5795.97 3027.11 5766.67 3037.52 5739.33C3049.24 5711.98 3061.61 5685.29 3074.63 5659.25C3088.96 5633.21 3101.98 5607.17 3113.7 5581.12C3125.41 5555.08 3131.27 5527.09 3131.27 5497.14C3131.27 5489.33 3129.97 5478.91 3127.37 5465.89C3124.76 5452.87 3116.3 5446.36 3101.98 5446.36C3059.01 5446.36 3019.95 5460.03 2984.79 5487.38C2950.93 5514.72 2919.68 5549.22 2891.04 5590.89C2863.7 5632.56 2838.3 5677.48 2814.87 5725.66C2792.73 5773.83 2771.25 5818.76 2750.41 5860.42C2730.88 5902.09 2712 5936.59 2693.77 5963.94C2675.54 5991.28 2656.66 6004.95 2637.13 6004.95C2609.79 6004.95 2587.65 5996.49 2570.73 5979.56C2553.8 5962.64 2545.34 5941.15 2545.34 5915.11ZM3377.37 5813.55C3377.37 5775.79 3384.53 5738.03 3398.85 5700.27C3413.17 5662.51 3430.1 5625.4 3449.63 5588.94C3469.16 5551.18 3488.7 5514.07 3508.23 5477.61C3529.06 5441.15 3544.68 5405.34 3555.1 5370.19C3530.36 5384.51 3508.88 5392.97 3490.65 5395.58C3473.72 5396.88 3452.89 5397.53 3428.15 5397.53C3425.54 5397.53 3417.08 5397.53 3402.76 5397.53C3389.74 5396.23 3381.27 5395.58 3377.37 5395.58C3385.18 5366.93 3399.5 5341.54 3420.34 5319.41C3441.17 5295.97 3464.61 5276.44 3490.65 5260.81C3517.99 5243.89 3545.99 5230.21 3574.63 5219.8C3604.58 5208.08 3631.27 5198.96 3654.71 5192.45C3693.77 5131.26 3725.67 5070.06 3750.41 5008.86C3775.15 4946.36 3799.89 4885.81 3824.63 4827.22C3850.67 4767.32 3880.62 4710.68 3914.48 4657.3C3949.63 4602.61 3996.51 4552.48 4055.1 4506.91L4064.87 4581.12L3820.73 5153.39C3835.05 5149.48 3852.63 5145.58 3873.46 5141.67C3894.29 5137.77 3915.13 5133.86 3935.96 5129.95C3958.1 5126.05 3978.93 5122.79 3998.46 5120.19C4019.29 5116.28 4036.87 5112.38 4051.2 5108.47C4052.5 5108.47 4056.4 5108.47 4062.91 5108.47C4069.42 5107.17 4074.63 5106.52 4078.54 5106.52C4096.77 5106.52 4111.74 5109.77 4123.46 5116.28C4135.18 5122.79 4144.95 5137.11 4152.76 5159.25C4064.22 5185.29 3984.14 5212.64 3912.52 5241.28C3840.91 5269.93 3778.41 5307.69 3725.02 5354.56C3672.94 5400.14 3629.97 5458.73 3596.12 5530.34C3563.57 5600.66 3540.78 5691.15 3527.76 5801.83C3527.76 5825.27 3529.06 5846.75 3531.66 5866.28C3534.27 5885.81 3550.54 5897.53 3580.49 5901.44C3610.44 5901.44 3638.43 5895.58 3664.48 5883.86C3690.52 5872.14 3715.91 5859.77 3740.65 5846.75C3765.39 5832.43 3790.13 5819.41 3814.87 5807.69C3840.91 5795.97 3868.9 5790.11 3898.85 5790.11C3898.85 5821.36 3885.18 5850.01 3857.84 5876.05C3830.49 5902.09 3797.29 5924.88 3758.23 5944.41C3720.47 5963.94 3681.4 5978.91 3641.04 5989.33C3600.67 5999.74 3567.47 6004.95 3541.43 6004.95C3515.39 6004.95 3491.95 5999.74 3471.12 5989.33C3450.28 5978.91 3432.71 5965.24 3418.38 5948.31C3405.36 5930.08 3394.95 5909.25 3387.13 5885.81C3380.62 5862.38 3377.37 5838.29 3377.37 5813.55ZM3916.43 5838.94C3916.43 5833.73 3916.43 5823.31 3916.43 5807.69C3917.73 5790.76 3918.38 5779.69 3918.38 5774.48C3960.05 5679.43 4013.43 5591.54 4078.54 5510.81C4143.64 5430.08 4217.21 5358.47 4299.24 5295.97C4301.85 5295.97 4305.75 5295.32 4310.96 5294.02C4317.47 5291.41 4322.03 5290.11 4324.63 5290.11C4359.79 5290.11 4388.43 5297.92 4410.57 5313.55C4434.01 5327.87 4452.24 5347.4 4465.26 5372.14C4479.58 5395.58 4489.35 5422.27 4494.55 5452.22C4499.76 5480.86 4502.37 5508.86 4502.37 5536.2C4502.37 5586.98 4490.65 5640.37 4467.21 5696.36C4443.77 5751.05 4411.87 5801.83 4371.51 5848.7C4332.45 5894.28 4287.52 5932.04 4236.74 5961.98C4185.96 5990.63 4133.23 6004.95 4078.54 6004.95C4023.85 6004.95 3982.84 5990.63 3955.49 5961.98C3929.45 5932.04 3916.43 5891.02 3916.43 5838.94ZM4068.77 5815.5C4068.77 5829.82 4074.63 5839.59 4086.35 5844.8C4098.07 5850.01 4109.79 5852.61 4121.51 5852.61C4154.06 5852.61 4185.31 5844.15 4215.26 5827.22C4246.51 5808.99 4273.85 5786.85 4297.29 5760.81C4322.03 5733.47 4341.56 5703.52 4355.88 5670.97C4370.21 5638.42 4377.37 5607.17 4377.37 5577.22C4377.37 5562.9 4376.07 5547.27 4373.46 5530.34C4372.16 5512.11 4368.25 5496.49 4361.74 5483.47C4355.23 5469.15 4344.82 5458.08 4330.49 5450.27C4317.47 5442.45 4298.59 5441.15 4273.85 5446.36C4255.62 5450.27 4234.79 5467.19 4211.35 5497.14C4187.91 5527.09 4165.13 5562.24 4142.99 5602.61C4122.16 5641.67 4104.58 5681.39 4090.26 5721.75C4075.93 5760.81 4068.77 5792.06 4068.77 5815.5ZM4600.02 5915.11C4600.02 5903.39 4600.02 5894.28 4600.02 5887.77C4600.02 5881.26 4600.67 5875.4 4601.98 5870.19C4604.58 5863.68 4607.84 5857.17 4611.74 5850.66C4615.65 5844.15 4620.86 5835.68 4627.37 5825.27C4637.78 5807.04 4657.32 5775.14 4685.96 5729.56C4714.61 5683.99 4745.21 5635.81 4777.76 5585.03C4810.31 5534.25 4840.91 5486.07 4869.55 5440.5C4899.5 5394.93 4920.34 5363.03 4932.05 5344.8C4933.36 5343.49 4936.61 5342.84 4941.82 5342.84C4948.33 5342.84 4952.89 5342.84 4955.49 5342.84C4958.1 5342.84 4962.65 5342.84 4969.16 5342.84C4975.67 5342.84 4979.58 5343.49 4980.88 5344.8C4982.18 5346.1 4984.79 5349.35 4988.7 5354.56C4993.9 5359.77 4999.11 5365.63 5004.32 5372.14C5010.83 5377.35 5016.04 5382.56 5019.95 5387.77C5025.15 5392.97 5029.06 5395.58 5031.66 5395.58C5043.38 5395.58 5055.75 5391.67 5068.77 5383.86C5081.79 5376.05 5094.82 5367.58 5107.84 5358.47C5122.16 5348.05 5136.48 5338.94 5150.8 5331.12C5165.13 5323.31 5180.1 5319.41 5195.73 5319.41C5212.65 5319.41 5228.28 5323.31 5242.6 5331.12C5256.92 5338.94 5269.29 5348.7 5279.71 5360.42C5290.13 5372.14 5297.94 5385.16 5303.15 5399.48C5309.66 5413.81 5312.91 5428.13 5312.91 5442.45C5312.91 5472.4 5308.36 5501.05 5299.24 5528.39C5291.43 5555.73 5282.32 5583.08 5271.9 5610.42C5261.48 5636.46 5251.72 5663.16 5242.6 5690.5C5234.79 5716.54 5230.88 5743.89 5230.88 5772.53C5230.88 5801.18 5234.14 5822.01 5240.65 5835.03C5247.16 5846.75 5265.39 5852.61 5295.34 5852.61C5330.49 5852.61 5363.7 5847.4 5394.95 5836.98C5427.5 5826.57 5460.7 5821.36 5494.55 5821.36C5494.55 5852.61 5484.79 5878.65 5465.26 5899.48C5447.03 5920.32 5423.59 5937.24 5394.95 5950.27C5367.6 5961.98 5337.65 5970.45 5305.1 5975.66C5273.85 5979.56 5245.21 5981.52 5219.16 5981.52C5169.68 5981.52 5133.23 5967.84 5109.79 5940.5C5087.65 5911.85 5076.59 5874.09 5076.59 5827.22C5076.59 5795.97 5081.79 5766.67 5092.21 5739.33C5103.93 5711.98 5116.3 5685.29 5129.32 5659.25C5143.64 5633.21 5156.66 5607.17 5168.38 5581.12C5180.1 5555.08 5185.96 5527.09 5185.96 5497.14C5185.96 5489.33 5184.66 5478.91 5182.05 5465.89C5179.45 5452.87 5170.99 5446.36 5156.66 5446.36C5113.7 5446.36 5074.63 5460.03 5039.48 5487.38C5005.62 5514.72 4974.37 5549.22 4945.73 5590.89C4918.38 5632.56 4892.99 5677.48 4869.55 5725.66C4847.42 5773.83 4825.93 5818.76 4805.1 5860.42C4785.57 5902.09 4766.69 5936.59 4748.46 5963.94C4730.23 5991.28 4711.35 6004.95 4691.82 6004.95C4664.48 6004.95 4642.34 5996.49 4625.41 5979.56C4608.49 5962.64 4600.02 5941.15 4600.02 5915.11Z" fill="#FFF2D9"/>
<path d="M657.547 8420.27C657.547 8412.45 657.547 8402.69 657.547 8390.97C657.547 8379.25 658.849 8368.18 661.453 8357.77C664.057 8346.05 667.964 8336.28 673.172 8328.47C678.38 8320.66 686.193 8316.75 696.609 8316.75C707.026 8316.75 718.094 8326.52 729.812 8346.05C742.833 8364.28 759.109 8385.11 778.641 8408.55C798.172 8430.68 822.26 8451.52 850.906 8471.05C880.854 8489.28 917.964 8498.39 962.234 8498.39C996.089 8498.39 1036.45 8493.18 1083.33 8482.77C1130.2 8472.35 1178.38 8458.03 1227.86 8439.8C1278.64 8420.27 1328.12 8397.48 1376.3 8371.44C1425.78 8344.09 1470.05 8314.8 1509.11 8283.55C1548.17 8250.99 1579.42 8217.14 1602.86 8181.98C1627.6 8145.53 1639.97 8107.77 1639.97 8068.7C1593.09 8068.7 1548.17 8073.91 1505.2 8084.33C1462.23 8094.74 1414.71 8099.95 1362.62 8099.95C1362.62 8088.23 1364.58 8077.17 1368.48 8066.75C1372.39 8055.03 1380.85 8046.57 1393.88 8041.36L1747.39 7890.97L1800.12 7838.23C1805.33 7825.21 1815.1 7803.08 1829.42 7771.83C1843.74 7740.58 1858.72 7708.03 1874.34 7674.17C1891.27 7639.02 1906.9 7605.81 1921.22 7574.56C1935.54 7543.31 1945.96 7521.83 1952.47 7510.11C1952.47 7508.81 1955.07 7504.25 1960.28 7496.44C1965.49 7488.62 1970.7 7480.81 1975.91 7473C1982.42 7463.89 1987.62 7456.07 1991.53 7449.56C1996.74 7441.75 1999.99 7436.54 2001.3 7433.94C2001.3 7423.52 2000.65 7414.41 1999.34 7406.59C1998.04 7398.78 1990.23 7390.32 1975.91 7381.2C1852.21 7426.78 1733.07 7469.09 1618.48 7508.16C1503.9 7545.92 1387.36 7588.23 1268.88 7635.11C1267.57 7635.11 1264.97 7635.76 1261.06 7637.06C1258.46 7637.06 1255.85 7637.06 1253.25 7637.06C1242.83 7637.06 1233.72 7633.16 1225.91 7625.34C1219.4 7617.53 1216.14 7608.42 1216.14 7598C1216.14 7584.98 1237.62 7565.45 1280.59 7539.41C1324.86 7512.06 1380.2 7483.42 1446.61 7453.47C1513.02 7422.22 1585.93 7390.32 1665.36 7357.77C1746.09 7325.21 1822.91 7295.92 1895.83 7269.88C1968.74 7242.53 2033.2 7220.4 2089.19 7203.47C2145.18 7186.54 2182.94 7178.08 2202.47 7178.08C2229.81 7178.08 2253.9 7184.59 2274.73 7197.61C2295.57 7210.63 2305.98 7234.07 2305.98 7267.92C2305.98 7278.34 2302.73 7286.8 2296.22 7293.31C2291.01 7299.82 2283.85 7305.68 2274.73 7310.89C2266.92 7314.8 2258.46 7318.7 2249.34 7322.61C2241.53 7325.21 2235.02 7328.47 2229.81 7332.38C2222 7338.89 2211.58 7348.65 2198.56 7361.67C2185.54 7374.69 2171.87 7387.71 2157.55 7400.73C2144.53 7413.76 2132.81 7426.12 2122.39 7437.84C2111.97 7448.26 2106.11 7454.77 2104.81 7457.38C2093.09 7476.91 2078.12 7504.25 2059.89 7539.41C2042.96 7573.26 2026.69 7607.77 2011.06 7642.92C1995.44 7678.08 1981.77 7709.98 1970.05 7738.62C1958.33 7765.97 1952.47 7782.24 1952.47 7787.45V7824.56C1957.68 7824.56 1966.79 7823.26 1979.81 7820.66C1994.14 7816.75 2008.46 7814.15 2022.78 7812.84C2037.1 7811.54 2049.47 7813.49 2059.89 7818.7C2071.61 7823.91 2077.47 7834.98 2077.47 7851.91C2077.47 7867.53 2069.01 7880.55 2052.08 7890.97C2045.57 7893.57 2033.85 7898.78 2016.92 7906.59C2001.3 7913.1 1983.72 7920.27 1964.19 7928.08C1945.96 7935.89 1928.38 7943.7 1911.45 7951.52C1894.53 7958.03 1882.81 7962.58 1876.3 7965.19C1819.01 8058.94 1758.46 8144.88 1694.66 8223C1632.16 8301.12 1562.49 8368.18 1485.67 8424.17C1410.15 8478.86 1325.52 8521.83 1231.77 8553.08C1139.32 8584.33 1035.8 8599.95 921.219 8599.95C896.479 8599.95 868.484 8596.7 837.234 8590.19C807.286 8583.68 778.641 8573.26 751.297 8558.94C725.255 8543.31 703.12 8524.43 684.891 8502.3C666.661 8478.86 657.547 8451.52 657.547 8420.27ZM2038.41 8496.44C2016.27 8446.96 2006.51 8398.78 2009.11 8351.91C2011.71 8303.73 2022.13 8258.81 2040.36 8217.14C2059.89 8174.17 2084.63 8135.76 2114.58 8101.91C2145.83 8066.75 2179.03 8036.8 2214.19 8012.06C2249.34 7986.02 2284.5 7966.49 2319.66 7953.47C2356.11 7940.45 2388.02 7935.24 2415.36 7937.84C2442.7 7939.15 2464.19 7948.91 2479.81 7967.14C2495.44 7985.37 2500.65 8013.36 2495.44 8051.12C2495.44 8101.91 2479.16 8146.18 2446.61 8183.94C2415.36 8221.7 2380.2 8255.55 2341.14 8285.5C2303.38 8315.45 2268.22 8342.79 2235.67 8367.53C2204.42 8390.97 2188.8 8413.1 2188.8 8433.94C2188.8 8445.66 2195.31 8454.77 2208.33 8461.28C2222.65 8467.79 2238.93 8473 2257.16 8476.91C2275.39 8479.51 2293.61 8481.46 2311.84 8482.77C2330.07 8484.07 2343.09 8485.37 2350.91 8486.67C2473.3 8460.63 2565.1 8445.01 2626.3 8439.8C2687.49 8433.29 2725.91 8433.94 2741.53 8441.75C2757.16 8448.26 2753.9 8459.33 2731.77 8474.95C2710.93 8489.28 2678.38 8504.9 2634.11 8521.83C2589.84 8537.45 2538.41 8551.78 2479.81 8564.8C2421.22 8577.82 2363.28 8585.63 2305.98 8588.23C2248.69 8589.54 2195.31 8583.68 2145.83 8570.66C2097.65 8557.64 2061.84 8532.9 2038.41 8496.44ZM2380.2 8051.12C2354.16 8051.12 2329.42 8058.29 2305.98 8072.61C2282.55 8086.93 2261.06 8105.16 2241.53 8127.3C2223.3 8148.13 2207.68 8171.57 2194.66 8197.61C2181.64 8222.35 2171.87 8245.79 2165.36 8267.92C2167.96 8269.22 2169.92 8269.88 2171.22 8269.88H2177.08C2195.31 8269.88 2216.14 8262.06 2239.58 8246.44C2263.02 8230.81 2285.15 8211.93 2305.98 8189.8C2326.82 8166.36 2344.4 8142.27 2358.72 8117.53C2373.04 8092.79 2380.2 8070.66 2380.2 8051.12ZM2688.8 8420.27C2688.8 8411.15 2689.45 8397.48 2690.75 8379.25C2693.35 8359.72 2695.96 8340.84 2698.56 8322.61C2701.17 8304.38 2703.77 8288.1 2706.38 8273.78C2708.98 8258.16 2711.58 8248.39 2714.19 8244.48L3069.66 7533.55C3074.86 7523.13 3084.63 7508.81 3098.95 7490.58C3114.58 7471.05 3130.85 7451.52 3147.78 7431.98C3166.01 7411.15 3183.59 7392.27 3200.52 7375.34C3218.74 7357.11 3233.72 7342.79 3245.44 7332.38C3254.55 7334.98 3261.06 7339.54 3264.97 7346.05C3268.88 7352.56 3271.48 7360.37 3272.78 7369.48C3274.08 7377.3 3274.08 7385.11 3272.78 7392.92C3272.78 7400.73 3272.78 7407.24 3272.78 7412.45C3272.78 7418.96 3272.78 7428.08 3272.78 7439.8C3272.78 7451.52 3272.13 7457.38 3270.83 7457.38C3257.81 7492.53 3237.62 7534.2 3210.28 7582.38C3182.94 7630.55 3152.34 7681.98 3118.48 7736.67C3084.63 7791.36 3049.47 7848.65 3013.02 7908.55C2977.86 7967.14 2945.31 8025.73 2915.36 8084.33C2886.71 8141.62 2862.62 8196.96 2843.09 8250.34C2824.86 8303.73 2815.75 8352.56 2815.75 8396.83C2815.75 8420.27 2822.26 8439.15 2835.28 8453.47C2849.6 8466.49 2864.58 8478.21 2880.2 8488.62C2895.83 8499.04 2910.15 8509.46 2923.17 8519.88C2937.49 8530.29 2944.66 8544.61 2944.66 8562.84C2944.66 8574.56 2939.45 8583.68 2929.03 8590.19C2918.61 8595.4 2906.24 8598 2891.92 8598C2837.23 8598 2789.71 8583.03 2749.34 8553.08C2708.98 8521.83 2688.8 8477.56 2688.8 8420.27ZM3184.89 8471.05C3184.89 8452.82 3186.84 8437.19 3190.75 8424.17C3194.66 8409.85 3201.82 8391.62 3212.23 8369.48C3221.35 8356.46 3237.62 8331.72 3261.06 8295.27C3285.8 8258.81 3311.19 8220.4 3337.23 8180.03C3364.58 8139.67 3389.97 8101.91 3413.41 8066.75C3438.15 8030.29 3455.07 8004.9 3464.19 7990.58C3475.91 7973.65 3485.02 7964.54 3491.53 7963.23C3498.04 7961.93 3510.41 7961.28 3528.64 7961.28C3540.36 7961.28 3552.73 7961.93 3565.75 7963.23C3580.07 7964.54 3589.19 7973.65 3593.09 7990.58C3574.86 8034.85 3550.12 8077.17 3518.88 8117.53C3488.93 8156.59 3458.98 8195.66 3429.03 8234.72C3400.39 8273.78 3374.99 8314.15 3352.86 8355.81C3330.72 8396.18 3319.66 8439.8 3319.66 8486.67C3324.86 8486.67 3332.68 8487.32 3343.09 8488.62C3354.81 8489.93 3367.18 8491.23 3380.2 8492.53C3393.22 8493.83 3404.94 8495.14 3415.36 8496.44C3427.08 8497.74 3435.54 8497.74 3440.75 8496.44C3448.56 8495.14 3461.58 8492.53 3479.81 8488.62C3499.34 8483.42 3519.53 8478.21 3540.36 8473C3562.49 8467.79 3583.33 8462.58 3602.86 8457.38C3622.39 8452.17 3636.06 8448.26 3643.88 8445.66C3643.88 8448.26 3643.88 8452.82 3643.88 8459.33C3645.18 8464.54 3645.83 8468.44 3645.83 8471.05C3645.83 8497.09 3633.46 8518.57 3608.72 8535.5C3585.28 8552.43 3557.29 8566.1 3524.73 8576.52C3493.48 8585.63 3460.93 8592.14 3427.08 8596.05C3394.53 8598.65 3369.14 8599.95 3350.91 8599.95C3331.38 8599.95 3311.19 8598 3290.36 8594.09C3270.83 8588.89 3253.25 8581.07 3237.62 8570.66C3222 8560.24 3208.98 8547.22 3198.56 8531.59C3189.45 8514.67 3184.89 8494.48 3184.89 8471.05ZM3753.25 7326.52C3770.18 7326.52 3785.8 7327.17 3800.12 7328.47C3814.45 7329.77 3826.82 7333.03 3837.23 7338.23C3847.65 7343.44 3856.11 7351.26 3862.62 7361.67C3869.14 7372.09 3872.39 7386.41 3872.39 7404.64C3872.39 7412.45 3872.39 7420.92 3872.39 7430.03C3872.39 7439.15 3871.09 7448.26 3868.48 7457.38C3867.18 7465.19 3863.93 7472.35 3858.72 7478.86C3853.51 7484.07 3845.05 7486.67 3833.33 7486.67C3815.1 7486.67 3800.12 7480.16 3788.41 7467.14C3777.99 7454.12 3770.18 7439.15 3764.97 7422.22C3759.76 7403.99 3756.51 7385.76 3755.2 7367.53C3753.9 7349.3 3753.25 7335.63 3753.25 7326.52ZM4132.16 7890.97C4102.21 7894.88 4067.7 7913.76 4028.64 7947.61C3989.58 7980.16 3951.82 8020.53 3915.36 8068.7C3880.2 8115.58 3850.26 8167.01 3825.52 8223C3800.78 8277.69 3788.41 8328.47 3788.41 8375.34C3788.41 8413.1 3798.17 8439.8 3817.7 8455.42C3837.23 8469.74 3865.23 8476.91 3901.69 8476.91C3940.75 8476.91 3978.51 8472.35 4014.97 8463.23C4052.73 8452.82 4089.84 8442.4 4126.3 8431.98C4164.06 8420.27 4201.17 8409.85 4237.62 8400.73C4275.39 8390.32 4313.8 8385.11 4352.86 8385.11C4352.86 8403.34 4350.26 8418.96 4345.05 8431.98C4339.84 8443.7 4332.03 8456.72 4321.61 8471.05C4253.9 8503.6 4184.24 8533.55 4112.62 8560.89C4041.01 8586.93 3966.14 8599.95 3888.02 8599.95C3864.58 8599.95 3839.84 8596.05 3813.8 8588.23C3787.76 8579.12 3763.67 8566.75 3741.53 8551.12C3719.4 8535.5 3700.52 8516.62 3684.89 8494.48C3670.57 8472.35 3663.41 8447.61 3663.41 8420.27C3663.41 8361.67 3671.87 8305.03 3688.8 8250.34C3705.72 8194.35 3729.16 8141.62 3759.11 8092.14C3789.06 8042.66 3824.86 7997.09 3866.53 7955.42C3909.5 7913.76 3955.72 7877.3 4005.2 7846.05V7844.09C4024.73 7832.38 4046.87 7821.31 4071.61 7810.89C4097.65 7799.17 4121.74 7792.66 4143.88 7791.36C4166.01 7788.76 4184.24 7793.96 4198.56 7806.98C4214.19 7818.7 4222 7841.49 4222 7875.34C4222 7890.97 4220.7 7911.8 4218.09 7937.84C4215.49 7962.58 4208.33 7980.16 4196.61 7990.58C4186.19 7997.09 4172.52 8002.95 4155.59 8008.16C4147.78 8010.76 4139.97 8012.71 4132.16 8014.02V7890.97ZM4327.47 8471.05C4327.47 8452.82 4329.42 8437.19 4333.33 8424.17C4337.23 8409.85 4344.4 8391.62 4354.81 8369.48C4363.93 8356.46 4380.2 8331.72 4403.64 8295.27C4428.38 8258.81 4453.77 8220.4 4479.81 8180.03C4507.16 8139.67 4532.55 8101.91 4555.98 8066.75C4580.72 8030.29 4597.65 8004.9 4606.77 7990.58C4618.48 7973.65 4627.6 7964.54 4634.11 7963.23C4640.62 7961.93 4652.99 7961.28 4671.22 7961.28C4682.94 7961.28 4695.31 7961.93 4708.33 7963.23C4722.65 7964.54 4731.77 7973.65 4735.67 7990.58C4717.44 8034.85 4692.7 8077.17 4661.45 8117.53C4631.51 8156.59 4601.56 8195.66 4571.61 8234.72C4542.96 8273.78 4517.57 8314.15 4495.44 8355.81C4473.3 8396.18 4462.23 8439.8 4462.23 8486.67C4467.44 8486.67 4475.26 8487.32 4485.67 8488.62C4497.39 8489.93 4509.76 8491.23 4522.78 8492.53C4535.8 8493.83 4547.52 8495.14 4557.94 8496.44C4569.66 8497.74 4578.12 8497.74 4583.33 8496.44C4591.14 8495.14 4604.16 8492.53 4622.39 8488.62C4641.92 8483.42 4662.1 8478.21 4682.94 8473C4705.07 8467.79 4725.91 8462.58 4745.44 8457.38C4764.97 8452.17 4778.64 8448.26 4786.45 8445.66C4786.45 8448.26 4786.45 8452.82 4786.45 8459.33C4787.76 8464.54 4788.41 8468.44 4788.41 8471.05C4788.41 8497.09 4776.04 8518.57 4751.3 8535.5C4727.86 8552.43 4699.86 8566.1 4667.31 8576.52C4636.06 8585.63 4603.51 8592.14 4569.66 8596.05C4537.1 8598.65 4511.71 8599.95 4493.48 8599.95C4473.95 8599.95 4453.77 8598 4432.94 8594.09C4413.41 8588.89 4395.83 8581.07 4380.2 8570.66C4364.58 8560.24 4351.56 8547.22 4341.14 8531.59C4332.03 8514.67 4327.47 8494.48 4327.47 8471.05ZM4895.83 7326.52C4912.76 7326.52 4928.38 7327.17 4942.7 7328.47C4957.03 7329.77 4969.4 7333.03 4979.81 7338.23C4990.23 7343.44 4998.69 7351.26 5005.2 7361.67C5011.71 7372.09 5014.97 7386.41 5014.97 7404.64C5014.97 7412.45 5014.97 7420.92 5014.97 7430.03C5014.97 7439.15 5013.67 7448.26 5011.06 7457.38C5009.76 7465.19 5006.51 7472.35 5001.3 7478.86C4996.09 7484.07 4987.62 7486.67 4975.91 7486.67C4957.68 7486.67 4942.7 7480.16 4930.98 7467.14C4920.57 7454.12 4912.76 7439.15 4907.55 7422.22C4902.34 7403.99 4899.08 7385.76 4897.78 7367.53C4896.48 7349.3 4895.83 7335.63 4895.83 7326.52ZM4815.75 8471.05C4827.47 8396.83 4849.6 8328.47 4882.16 8265.97C4914.71 8203.47 4951.82 8149.43 4993.48 8103.86C5036.45 8056.98 5082.68 8018.57 5132.16 7988.62C5181.64 7958.68 5229.81 7939.8 5276.69 7931.98C5323.56 7922.87 5366.53 7924.82 5405.59 7937.84C5445.96 7950.86 5478.51 7976.91 5503.25 8015.97C5503.25 8045.92 5496.09 8074.56 5481.77 8101.91C5468.74 8129.25 5453.77 8156.59 5436.84 8183.94C5421.22 8211.28 5406.24 8239.28 5391.92 8267.92C5378.9 8296.57 5372.39 8327.17 5372.39 8359.72C5372.39 8393.57 5379.55 8420.92 5393.88 8441.75C5409.5 8461.28 5436.19 8471.05 5473.95 8471.05C5505.2 8471.05 5535.15 8466.49 5563.8 8457.38C5593.74 8448.26 5623.69 8443.7 5653.64 8443.7C5658.85 8443.7 5667.31 8444.35 5679.03 8445.66C5692.05 8445.66 5700.52 8445.66 5704.42 8445.66C5688.8 8467.79 5668.61 8486.67 5643.88 8502.3C5619.14 8517.92 5593.09 8531.59 5565.75 8543.31C5538.41 8553.73 5509.76 8561.54 5479.81 8566.75C5451.17 8571.96 5424.47 8574.56 5399.73 8574.56C5376.3 8574.56 5355.46 8569.35 5337.23 8558.94C5319.01 8548.52 5303.38 8534.85 5290.36 8517.92C5277.34 8500.99 5266.92 8482.11 5259.11 8461.28C5252.6 8439.15 5249.34 8417.66 5249.34 8396.83C5229.81 8418.96 5208.33 8442.4 5184.89 8467.14C5162.76 8490.58 5138.67 8512.06 5112.62 8531.59C5087.89 8551.12 5060.54 8567.4 5030.59 8580.42C5001.95 8593.44 4972 8599.95 4940.75 8599.95C4906.9 8599.95 4877.6 8587.58 4852.86 8562.84C4828.12 8536.8 4815.75 8506.2 4815.75 8471.05ZM4944.66 8410.5C4944.66 8420.92 4944.66 8432.64 4944.66 8445.66C4945.96 8458.68 4954.42 8467.14 4970.05 8471.05C5002.6 8463.23 5039.71 8446.31 5081.38 8420.27C5123.04 8392.92 5162.1 8361.67 5198.56 8326.52C5235.02 8290.06 5265.62 8251.65 5290.36 8211.28C5315.1 8169.61 5327.47 8129.9 5327.47 8092.14C5327.47 8089.54 5326.82 8085.63 5325.52 8080.42C5325.52 8073.91 5325.52 8069.35 5325.52 8066.75C5281.24 8066.75 5236.32 8075.86 5190.75 8094.09C5145.18 8112.32 5104.16 8137.71 5067.7 8170.27C5031.24 8201.52 5001.3 8237.97 4977.86 8279.64C4955.72 8321.31 4944.66 8364.93 4944.66 8410.5ZM5647.78 8381.2C5647.78 8356.46 5651.04 8334.98 5657.55 8316.75C5665.36 8298.52 5684.24 8289.41 5714.19 8289.41C5716.79 8289.41 5722.65 8290.06 5731.77 8291.36C5742.18 8291.36 5749.34 8292.01 5753.25 8293.31C5751.95 8354.51 5761.71 8400.73 5782.55 8431.98C5803.38 8461.93 5842.44 8476.91 5899.73 8476.91C5946.61 8476.91 5992.83 8469.74 6038.41 8455.42C6083.98 8441.1 6124.99 8420.27 6161.45 8392.92C6199.21 8364.28 6229.16 8329.77 6251.3 8289.41C6274.73 8249.04 6286.45 8203.47 6286.45 8152.69C6286.45 8121.44 6275.39 8099.3 6253.25 8086.28C6232.42 8073.26 6208.98 8062.84 6182.94 8055.03C6156.9 8047.22 6132.81 8038.76 6110.67 8029.64C6089.84 8019.22 6079.42 8001.65 6079.42 7976.91C6079.42 7946.96 6097.65 7918.31 6134.11 7890.97C6170.57 7863.62 6213.54 7839.54 6263.02 7818.7C6312.49 7796.57 6361.32 7779.64 6409.5 7767.92C6458.98 7754.9 6496.74 7748.39 6522.78 7748.39C6522.78 7786.15 6514.32 7812.84 6497.39 7828.47C6481.77 7844.09 6462.23 7856.46 6438.8 7865.58C6415.36 7874.69 6391.27 7883.81 6366.53 7892.92C6343.09 7900.73 6323.56 7916.36 6307.94 7939.8C6328.77 7956.72 6345.7 7972.35 6358.72 7986.67C6373.04 7999.69 6384.11 8014.02 6391.92 8029.64C6399.73 8045.27 6404.94 8062.84 6407.55 8082.38C6410.15 8100.6 6411.45 8122.74 6411.45 8148.78C6411.45 8216.49 6396.48 8278.34 6366.53 8334.33C6337.89 8389.02 6300.12 8436.54 6253.25 8476.91C6206.38 8515.97 6152.99 8546.57 6093.09 8568.7C6033.2 8589.54 5972 8599.95 5909.5 8599.95C5875.65 8599.95 5842.44 8596.05 5809.89 8588.23C5778.64 8579.12 5750.65 8565.45 5725.91 8547.22C5702.47 8528.99 5683.59 8506.2 5669.27 8478.86C5654.94 8451.52 5647.78 8418.96 5647.78 8381.2Z" fill="#FFF2D9"/>
<path d="M3399.61 6706.05C3383.98 6705.4 3365.76 6702.79 3344.92 6698.23C3324.74 6693.68 3305.21 6686.84 3286.33 6677.73C3268.1 6667.96 3252.47 6655.59 3239.45 6640.62C3227.08 6625.64 3220.9 6607.41 3220.9 6585.93C3220.9 6574.21 3223.83 6565.42 3229.69 6559.56C3235.55 6553.05 3242.71 6548.49 3251.17 6545.89C3260.29 6543.29 3269.73 6541.98 3279.49 6541.98C3289.91 6541.33 3299.02 6541.01 3306.84 6541.01C3328.97 6541.01 3346.22 6542.64 3358.59 6545.89C3371.61 6548.49 3381.38 6552.4 3387.89 6557.61C3394.4 6562.82 3398.96 6568.68 3401.56 6575.19C3404.17 6581.7 3407.1 6588.86 3410.35 6596.67C3413.61 6604.48 3417.84 6612.3 3423.05 6620.11C3428.91 6627.92 3438.02 6635.41 3450.39 6642.57C3459.51 6636.71 3468.29 6625.64 3476.76 6609.37C3485.87 6593.09 3494.34 6574.86 3502.15 6554.68C3510.61 6533.85 3518.75 6512.36 3526.56 6490.23C3534.38 6467.44 3542.19 6446.93 3550 6428.7C3557.81 6409.82 3565.3 6394.52 3572.46 6382.8C3579.62 6370.43 3587.11 6364.25 3594.92 6364.25C3601.43 6364.25 3606.32 6366.2 3609.57 6370.11C3612.83 6373.36 3614.78 6377.6 3615.43 6382.8C3616.73 6388.01 3617.06 6393.55 3616.41 6399.41C3616.41 6404.61 3616.41 6409.17 3616.41 6413.08C3616.41 6416.33 3616.08 6421.54 3615.43 6428.7C3615.43 6435.86 3615.1 6440.1 3614.45 6441.4L3526.56 6618.16V6628.9C3548.7 6628.9 3570.83 6623.04 3592.97 6611.32C3615.1 6598.95 3635.94 6585.6 3655.47 6571.28C3675 6556.31 3692.58 6542.64 3708.2 6530.27C3724.48 6517.9 3737.5 6511.71 3747.27 6511.71C3747.27 6532.54 3741.41 6551.1 3729.69 6567.38C3717.97 6583.65 3702.99 6598.3 3684.77 6611.32C3667.19 6623.69 3647.98 6634.76 3627.15 6644.52C3606.32 6654.29 3586.46 6663.08 3567.58 6670.89C3549.35 6678.05 3533.72 6684.56 3520.7 6690.42C3508.33 6695.63 3501.5 6700.84 3500.2 6706.05L3463.09 6833C3463.09 6833.65 3461.46 6833.98 3458.2 6833.98C3455.6 6833.98 3453.65 6833.98 3452.34 6833.98C3449.09 6833.98 3444.53 6833.33 3438.67 6832.02C3432.81 6830.72 3426.95 6829.09 3421.09 6827.14C3415.23 6824.54 3410.03 6821.61 3405.47 6818.35C3401.56 6815.1 3399.61 6811.52 3399.61 6807.61V6706.05ZM3280.47 6587.88C3280.47 6598.95 3284.7 6608.07 3293.16 6615.23C3302.28 6621.74 3312.7 6626.95 3324.41 6630.85C3336.13 6634.76 3347.85 6637.69 3359.57 6639.64C3371.94 6641.59 3381.05 6642.57 3386.91 6642.57C3386.91 6641.92 3386.91 6640.94 3386.91 6639.64C3387.57 6638.34 3387.89 6637.36 3387.89 6636.71C3387.89 6625.64 3383.33 6616.85 3374.22 6610.34C3365.1 6603.83 3354.36 6598.95 3341.99 6595.7C3330.27 6592.44 3318.55 6590.49 3306.84 6589.84C3295.12 6588.53 3286.33 6587.88 3280.47 6587.88Z" fill="#FFF2D9"/>
</g>
<defs>
<clipPath id="clip0_3291_180">
<rect width="7296" height="12335" fill="white"/>
</clipPath>
</defs>
</svg>
